<svg width="13" height="13" viewBox="0 0 13 13" fill="none" xmlns="http://www.w3.org/2000/svg">
<path fill-rule="evenodd" clip-rule="evenodd" d="M11.8391 1.96008C11.1701 1.21166 10.2807 0.799805 9.33459 0.799805C8.38831 0.799805 7.59423 1.21166 6.925 1.96008L6.49998 2.63896L6.075 1.96008C5.40597 1.21166 4.61164 0.799805 3.66557 0.799805C2.71953 0.799805 1.82982 1.21166 1.16086 1.96008C-0.220288 3.5053 -0.220288 6.01943 1.16086 7.56405L6.10991 12.3205C6.19083 12.4114 6.29157 12.467 6.39682 12.4884C6.43211 12.4962 6.46761 12.4998 6.50317 12.4998C6.64318 12.4998 6.78341 12.4401 6.89004 12.3205L11.8391 7.56405C13.2203 6.01943 13.2203 3.5053 11.8391 1.96008Z" fill="#281D15"/>
</svg>
