<?xml version="1.0" standalone="no"?> <!DOCTYPE svg PUBLIC "-//W3C//DTD SVG 1.0//EN" "http://www.w3.org/TR/2001/REC-SVG-20010904/DTD/svg10.dtd" > <svg xmlns="http://www.w3.org/2000/svg" width="100%" height="100%">
<defs >
<font horiz-adv-x="657" ><font-face
    font-family="Faberge"
    units-per-em="1000"
    panose-1="0 0 5 0 0 0 0 0 0 0"
    ascent="1300"
    descent="-700"
    alphabetic="0" />
<missing-glyph horiz-adv-x="1000" d="M820 -700H186V1300H820V-700ZM336 1166V1100H466V1026H334V960H666V1026H534V1100H666V1166H336ZM334 908V700H666V768H534V908H334ZM466 768H400V840H466V768ZM334 646V580H466V506H334V440H534V580H666V646H334ZM600 526V394H334V326H666V526H600ZM466
282V170H534V216H600V122H400V282H334V56H666V282H466ZM334 -64V-290H666V-64H334ZM600 -224H400V-130H600V-224ZM334 -336V-402H474L334 -496V-562H666V-496H462L602 -402H666V-336H334Z" />
<glyph unicode=" " glyph-name="space" horiz-adv-x="280" />
<glyph unicode="!" glyph-name="exclam" horiz-adv-x="216" d="M92 694Q91 720 101 735T128 750Q143 750 153 735T163 694L128 161H126L92 694ZM108 0T94 14T80 48Q80 68 94 81T128 95Q148 95 162 81T176 48Q176 28 162 14T128 0Q108 0 94 14Z" />
<glyph unicode="&quot;" glyph-name="quotedbl" horiz-adv-x="276" d="M80 701H126L104 510H102L80 701ZM190 701H236L214 510H212L190 701Z" />
<glyph unicode="#" glyph-name="numbersign" horiz-adv-x="721" d="M245 194H80L88 215H252L306 375H130L140 396H312L379 595H401L334 396L502 395L569 595H591L524 395H681L672 375H518L464 214H630L621 193H457L394 5H372L435 193L267 194L204 5H182L245 194ZM496
375H328L274 215L442 214L496 375Z" />
<glyph unicode="$" glyph-name="dollar" horiz-adv-x="635" d="M323 -9Q262 -5 205 19T106 85Q103 87 100 86Q96 84 91 50T86 0H80V140H85Q117 80 182 46T323 7V366Q233 393 184 430T135 540Q135 594 161 632T230 689T323 711V780H338V711Q377 709 413 697T475
663Q477 662 481 662Q486 662 490 674T495 700H501V612H496Q474 652 431 674T338 697V408Q427 383 475 365T559 307T595 199Q595 132 562 85T472 14T346 -10H338V-97H323V-9ZM323 697Q255 694 207 655T158 551Q158 494 200 465T323 413V697ZM342 6Q404 6 457 27T542
88T574 185Q574 236 545 268T473 318T358 356L338 362V6H342Z" />
<glyph unicode="%" glyph-name="percent" horiz-adv-x="681" d="M608 683Q538 657 460 657Q396 657 295 679Q319 658 333 627T347 560Q347 519 329 484T281 429T214 409Q178 409 147 429T98 484T80 560Q80 601 98 635T147 690T214 710H216Q242 710 268 697Q381
670 460 670Q544 670 620 699V700H637L142 0H125L608 683ZM267 427T285 454T304 525Q304 542 301 560Q291 616 259 654T190 693Q160 693 141 666T122 595Q122 578 125 560Q135 504 167 466T236 427Q267 427 285 454ZM472 -10T441 10T392 65T374 141Q374 182 392
216T441 271T508 291Q544 291 574 271T623 217T641 141Q641 100 623 65T575 10T508 -10Q472 -10 441 10ZM561 8T579 35T598 106Q598 123 595 141Q585 197 553 235T484 274Q454 274 435 247T416 176Q416 159 419 141Q429 85 461 47T530 8Q561 8 579 35Z" />
<glyph unicode="&amp;" glyph-name="ampersand" horiz-adv-x="778" d="M233 -28T170 8Q127 33 104 70T80 151Q80 217 132 273Q165 307 226 363L251 387Q185 499 170 572Q166 591 166 612Q166 673 202 714T289 765Q306 769 327 769Q381 769 418 736T467 651Q469
637 469 630Q469 589 440 552T344 453Q324 435 286 399Q344 303 416 214T556 71Q620 140 620 247Q620 259 618 283Q613 333 596 372Q586 396 569 407T509 417L508 422L683 426V421Q611 418 611 383Q611 380 613 372Q619 351 624 329T632 288Q634 260 634 247Q634
134 567 62Q628 15 674 15Q730 15 730 61Q730 71 727 83H732Q738 64 738 46Q738 17 722 -1T673 -19Q617 -19 540 37Q498 4 444 -12T328 -28Q233 -28 170 8ZM318 448T315 445Q361 486 384 510T422 560T436 615Q436 629 433 644Q422 699 388 727T312 755Q281 755
254 740T210 696T193 629Q193 609 197 592Q210 528 279 412Q318 448 315 445ZM404 -6T448 7T528 47Q458 102 386 191T258 375Q212 332 190 310T150 265Q116 221 116 171Q116 131 137 95T195 35Q259 -6 358 -6Q404 -6 448 7Z" />
<glyph unicode="&apos;" glyph-name="quotesingle" horiz-adv-x="166" d="M80 701H126L104 510H102L80 701Z" />
<glyph unicode="(" glyph-name="parenleft" horiz-adv-x="268" d="M80 88T80 292Q80 495 220 700H228Q123 496 123 292Q123 87 228 -117H220Q80 88 80 292Z" />
<glyph unicode=")" glyph-name="parenright" horiz-adv-x="268" d="M185 87T185 292Q185 496 80 700H88Q228 497 228 292Q228 86 88 -117H80Q185 87 185 292Z" />
<glyph unicode="*" glyph-name="asterisk" horiz-adv-x="379" d="M212 631L195 753L194 760Q194 770 199 775T212 781Q220 781 225 774T229 753L213 632L303 711Q313 718 322 718Q329 718 334 714T339 703Q339 691 322 682L212 630L210 629L212 631ZM90 539T85
543T80 555Q80 561 84 566T97 576L209 629L97 682Q80 691 80 703Q80 709 85 714T97 719Q105 719 116 711L210 629L115 547Q106 539 97 539Q90 539 85 543ZM204 478T199 485T195 506L211 627L210 629L212 628L322 576Q339 568 339 555Q339 549 334 544T322 539Q312
539 304 547L213 626L229 506V501Q229 490 224 484T212 478Q204 478 199 485Z" />
<glyph unicode="+" glyph-name="plus" horiz-adv-x="539" d="M283 376H80V389H283V577H296V389H499V376H296V158H283V376Z" />
<glyph unicode="," glyph-name="comma" horiz-adv-x="217" d="M133 -58T133 -32Q133 -7 115 1Q99 6 90 18T80 47Q80 67 93 81T128 95Q142 95 154 87T171 66Q177 56 177 41Q177 12 159 -25T118 -85H115Q133 -58 133 -32Z" />
<glyph unicode="-" glyph-name="hyphen" horiz-adv-x="450" d="M80 350H410V327H80V350Z" />
<glyph unicode="." glyph-name="period" horiz-adv-x="216" d="M108 0T94 14T80 48Q80 67 94 81T128 95Q148 95 162 81T176 48Q176 28 162 14T128 0Q108 0 94 14Z" />
<glyph unicode="/" glyph-name="slash" horiz-adv-x="497" d="M435 705H457L102 -112H80L435 705Z" />
<glyph unicode="0" glyph-name="zero" horiz-adv-x="624" d="M266 -10T210 37T122 167T90 349Q90 453 121 535T209 664T337 711Q408 711 464 663T552 531T584 349Q584 245 553 163T465 36T337 -10Q266 -10 210 37ZM424 11T465 48T528 151T549 296Q549 331 547
349Q539 441 507 519T422 644T307 691Q250 691 209 653T147 548T125 402Q125 367 127 349Q135 258 167 181T252 57T367 11Q424 11 465 48Z" />
<glyph unicode="1" glyph-name="one" horiz-adv-x="328" d="M119 5Q142 5 154 18T167 51V610L90 541V546L209 710V51Q209 31 221 18T257 5V0H119V5Z" />
<glyph unicode="2" glyph-name="two" horiz-adv-x="558" d="M112 23T157 61Q241 135 303 197T413 341T463 506Q463 565 442 606T385 667T306 688Q245 688 190 648T108 534H100Q112 576 139 616T213 683T322 710Q380 710 423 685T489 615T512 517Q512 474 498 429T454
341Q413 280 350 219T209 91Q169 56 155 42H424Q449 42 469 59T513 124H518L477 0H90Q112 23 157 61Z" />
<glyph unicode="3" glyph-name="three" horiz-adv-x="558" d="M104 -130L146 -105Q243 -48 304 -7T412 86T467 194Q470 212 470 228Q470 295 428 331T322 367Q294 367 262 359Q258 357 234 350V357Q304 380 355 426T406 541Q406 611 367 648T272 686Q217 686 168
650T100 550H94Q94 560 102 582T126 628Q153 669 194 690T282 711Q326 711 365 692T429 637T454 554Q454 503 414 456T306 377Q319 379 343 379Q395 379 435 359T498 304T521 223Q521 162 482 112T384 23T222 -73Q205 -83 170 -102T108 -138L104 -130Z" />
<glyph unicode="4" glyph-name="four" horiz-adv-x="549" d="M357 5Q380 5 392 18T405 51V200H120L436 710H447V213H488V200H447V51Q447 31 459 18T495 5V0H357V5ZM405 213V625L147 213H405Z" />
<glyph unicode="5" glyph-name="five" horiz-adv-x="558" d="M74 -130Q197 -67 273 -18T398 87T464 214Q472 249 472 275Q472 350 425 395T305 440Q214 440 120 369L190 700H434Q459 700 479 717T523 782H528L487 658H201L149 408Q232 459 314 459Q372 459 419
435T493 367T521 270Q521 252 518 234Q504 155 444 92T302 -19T78 -138L74 -130Z" />
<glyph unicode="6" glyph-name="six" horiz-adv-x="569" d="M247 -10T195 34T116 148T90 294Q90 413 139 503T253 649T393 751V743Q280 667 210 551T137 301Q160 373 210 415T336 457Q387 457 431 431T502 356T529 241Q529 183 504 125T432 28T321 -10Q247 -10
195 34ZM405 5T447 73T489 239Q489 335 445 387T326 440Q275 440 233 410T167 331T141 225Q154 125 200 65T321 5Q405 5 447 73Z" />
<glyph unicode="7" glyph-name="seven" horiz-adv-x="549" d="M218 145T290 310T456 639L467 658H175Q150 658 130 641T86 576H81L122 700H509L485 657Q412 525 371 440T296 246T245 0H183Q218 145 290 310Z" />
<glyph unicode="8" glyph-name="eight" horiz-adv-x="561" d="M249 -10T200 8T121 61T90 147Q90 207 133 266T259 375H263Q202 418 168 458T134 543Q134 595 160 632T228 689T316 708Q383 708 430 671T478 568Q478 516 440 465T334 374Q397 333 433 305T495 242T521
166Q521 110 491 70T410 10T303 -10Q249 -10 200 8ZM381 415T415 461T450 554L449 566Q445 605 424 634T371 680T308 696Q273 696 238 682T180 639T156 570Q156 518 199 476T325 380Q381 415 415 461ZM355 2T399 19T471 67T498 137Q498 173 474 206T414 268T318
336L273 367Q205 331 162 280T119 167Q119 118 150 81T226 23T307 2Q355 2 399 19Z" />
<glyph unicode="9" glyph-name="nine" horiz-adv-x="569" d="M226 -43Q339 33 409 149T482 399Q459 327 409 285T283 243Q232 243 188 269T117 344T90 459Q90 517 115 575T187 672T298 710Q372 710 424 666T503 552T529 406Q529 287 480 197T366 51T226 -51V-43ZM344
260T386 290T452 369T478 475Q465 575 419 635T298 695Q214 695 172 627T130 461Q130 365 174 313T293 260Q344 260 386 290Z" />
<glyph unicode=":" glyph-name="colon" horiz-adv-x="215" d="M108 488T94 502T80 536Q80 556 94 569T128 583Q148 583 161 570T175 536Q175 516 162 502T128 488Q108 488 94 502ZM108 0T94 13T80 48Q80 68 94 81T128 95Q148 95 161 82T175 48Q175 27 162 14T128
0Q108 0 94 13Z" />
<glyph unicode=";" glyph-name="semicolon" horiz-adv-x="218" d="M108 488T94 502T80 536Q80 556 94 569T128 583Q148 583 161 570T175 536Q175 516 162 502T128 488Q108 488 94 502ZM134 -58T134 -32Q134 -7 116 1Q100 6 91 18T81 47Q81 67 94 81T129 95Q143
95 155 87T172 66Q178 56 178 41Q178 12 160 -25T119 -85H116Q134 -58 134 -32Z" />
<glyph unicode="&lt;" glyph-name="less" horiz-adv-x="531" d="M80 372L491 580V554L124 372L491 190V164L80 372Z" />
<glyph unicode="=" glyph-name="equal" horiz-adv-x="539" d="M80 469H499V456H80V469ZM80 296H499V283H80V296Z" />
<glyph unicode="&gt;" glyph-name="greater" horiz-adv-x="531" d="M80 190L447 372L80 554V580L491 372L80 164V190Z" />
<glyph unicode="?" glyph-name="question" horiz-adv-x="455" d="M212 196T231 240T288 350Q332 424 355 479T378 596Q378 661 339 697T245 733Q205 733 170 713T112 654T89 558H80Q80 619 105 662T171 727T257 749Q298 749 334 731T393 678T415 594Q415 541 390
491T314 364Q266 294 243 247T219 151H212Q212 196 231 240ZM200 0T186 14T172 48Q172 67 186 81T220 95Q240 95 254 81T268 48Q268 28 254 14T220 0Q200 0 186 14Z" />
<glyph unicode="@" glyph-name="at" horiz-adv-x="878" d="M361 -168T269 -114T128 30T80 219Q80 323 127 415T265 565T482 622Q576 622 657 584T788 469T838 282Q838 212 810 144T735 36Q686 -7 628 -7Q581 -7 549 23T517 99V108Q496 60 463 31T393 2Q342 2 316
49T290 165Q290 228 314 291T382 395T486 436Q542 436 573 388L584 435H635Q615 352 580 223L571 188L556 132Q549 111 549 91Q549 54 573 33T633 11Q656 11 681 21T727 50Q768 86 793 150T819 278Q819 383 773 456T650 565T485 602Q366 602 280 548T149 405T104
219Q104 124 149 40T280 -95T484 -147Q659 -147 743 -62H773Q724 -114 649 -141T489 -168Q361 -168 269 -114ZM417 25T422 26Q464 34 490 97T541 260L565 359Q560 383 542 402T502 423L490 424Q440 424 404 381T349 274T330 150Q330 132 331 123Q335 80 355 53T408
25Q417 25 422 26Z" />
<glyph unicode="A" glyph-name="A" horiz-adv-x="756" d="M30 5Q75 5 92 44L356 679Q342 695 317 695V700H393L664 51Q673 30 689 18T726 5V0H594V5Q627 5 627 25Q627 30 624 39L500 336H229L105 38Q102 31 102 25Q102 5 147 5V0H30V5ZM494 350L364 662L235 350H494Z" />
<glyph unicode="B" glyph-name="B" horiz-adv-x="668" d="M70 5Q93 5 105 18T118 51V649Q118 674 101 686H99V687Q88 695 70 695V700H285Q413 700 476 650T534 513Q531 462 496 425T406 371Q513 362 565 314T618 192Q618 98 550 49T365 0H70V5ZM384 371T437 409T494
513Q499 595 448 640T283 686H208Q184 686 172 677T160 649V412Q230 371 309 371Q384 371 437 409ZM365 14Q576 22 576 197Q576 274 521 318T347 359Q338 358 320 358Q234 358 160 400V51Q160 32 172 23T208 14H365Z" />
<glyph unicode="C" glyph-name="C" horiz-adv-x="726" d="M323 -10T237 38T100 168T50 349Q50 452 100 534T238 663T428 710Q537 710 643 663Q645 662 649 662Q654 662 658 674T663 700H669V612H664Q616 653 553 675T427 697Q334 697 257 656T135 541T90 377Q90
273 141 188T275 55T450 6Q573 6 671 95L676 88Q618 36 561 13T427 -10Q323 -10 237 38Z" />
<glyph unicode="D" glyph-name="D" horiz-adv-x="756" d="M70 5Q93 5 105 18T118 51V649Q118 669 106 682T70 695V700H309Q440 700 529 654T662 529T706 351Q706 257 658 179T522 52T319 0H70V5ZM299 14Q410 14 493 54T621 165T666 323Q666 420 632 501T518 634T311
686H208Q184 686 172 677T160 649V51Q160 32 172 23T208 14H299Z" />
<glyph unicode="E" glyph-name="E" horiz-adv-x="632" d="M558 0T520 0H70V5Q93 5 105 18T118 51V649Q118 669 106 682T70 695V700H500Q538 700 540 710H545L572 623H566Q554 654 542 670T511 686H208Q184 686 172 677T160 649V373H426Q447 373 447 397Q447 412
441 436H448L482 296H475Q467 329 457 344T430 359H160V51Q160 32 172 23T208 14H531Q550 14 562 30T586 77H592L568 0L565 -10H560Q558 0 520 0Z" />
<glyph unicode="F" glyph-name="F" horiz-adv-x="612" d="M70 5Q93 5 105 18T118 51V649Q118 669 106 682T70 695V700H500Q538 700 540 710H545L572 613H566Q552 650 541 668T511 686H208Q184 686 172 677T160 649V373H426Q447 373 447 397Q447 412 441 436H448L482
296H475Q467 329 457 344T430 359H160V51Q160 31 172 18T208 4V0H70V5Z" />
<glyph unicode="G" glyph-name="G" horiz-adv-x="785" d="M323 -10T237 38T100 168T50 349Q50 452 100 534T238 663T428 710Q537 710 643 663Q645 662 649 662Q654 662 658 674T663 700H669V612H664Q616 653 553 675T427 697Q334 697 257 656T135 541T90 377Q90
285 133 200T252 61T425 5Q492 4 543 20T644 75V342Q644 362 632 375T596 388V393H725V388Q702 388 690 375T677 342V88L667 80Q616 33 560 12T427 -10Q323 -10 237 38Z" />
<glyph unicode="H" glyph-name="H" horiz-adv-x="770" d="M70 5Q93 5 105 18T118 51V649Q118 669 106 682T70 695V700H208V695Q185 695 173 682T160 649V362H610V649Q610 669 598 682T562 695V700H700V695Q677 695 665 682T652 649V51Q652 31 664 18T700 5V0H562V5Q585
5 597 18T610 51V348H160V51Q160 31 172 18T208 5V0H70V5Z" />
<glyph unicode="I" glyph-name="I" horiz-adv-x="278" d="M70 5Q93 5 105 18T118 51V649Q118 669 106 682T70 695V700H208V695Q185 695 173 682T160 649V51Q160 31 172 18T208 5V0H70V5Z" />
<glyph unicode="J" glyph-name="J" horiz-adv-x="596" d="M194 -10T141 15T55 89T20 205H34Q36 142 66 97T143 29T243 6Q294 6 338 28T409 94T436 201V649Q436 669 424 682T388 695V700H526V695Q503 695 491 682T478 649V212Q478 140 447 90T364 15T253 -10Q194
-10 141 15Z" />
<glyph unicode="K" glyph-name="K" horiz-adv-x="684" d="M524 5Q539 5 539 13Q539 21 527 35L247 367Q238 362 228 361Q224 360 216 360Q192 360 179 375T166 410Q166 427 175 439T203 451Q227 451 256 418L268 403Q285 419 302 442T335 490T356 522Q393 580
418 615T475 677T541 709Q545 710 556 710Q586 710 602 699T618 672Q618 659 608 649T585 639Q570 639 565 646T555 667Q552 679 547 685T531 690Q490 678 455 636T370 514Q335 460 317 435T279 390L574 42Q592 25 608 16T644 5V0H524V5ZM70 5Q93 5 105 18T118
51V649Q118 669 106 682T70 695V700H208V696Q185 696 173 683T160 649V51Q160 31 172 18T208 4V0H70V5ZM223 378T226 379Q227 379 229 379T235 382L225 394Q207 416 199 416Q190 416 190 404Q190 394 197 386T218 378Q223 378 226 379Z" />
<glyph unicode="L" glyph-name="L" horiz-adv-x="632" d="M558 0T520 0H70V5Q93 5 105 18T118 51V649Q118 669 106 682T70 695V700H208V696Q185 696 173 683T160 649V51Q160 32 172 23T208 14H531Q550 14 562 30T586 77H592L568 0L565 -10H560Q558 0 520 0Z" />
<glyph unicode="M" glyph-name="M" horiz-adv-x="920" d="M70 5Q93 5 105 18T118 51V649Q118 669 106 682T70 695V700H152L460 50L760 700H850V695Q827 695 815 682T802 649V51Q802 31 814 18T850 5V0H712V4Q735 4 747 17T760 51V667L452 0H437L132 642V51Q132
31 144 18T180 4V0H70V5Z" />
<glyph unicode="N" glyph-name="N" horiz-adv-x="768" d="M132 649V51Q132 31 144 18T180 4V0H70V5Q93 5 105 18T118 51V649Q118 669 106 682T70 695V700H145L636 77V649Q636 669 624 682T588 695V700H698V696Q675 696 663 683T650 649V-9L132 649Z" />
<glyph unicode="O" glyph-name="O" horiz-adv-x="862" d="M323 -10T236 38T100 168T50 350Q50 449 99 531T236 661T431 709Q539 709 626 661T762 531T812 350Q812 251 763 169T626 38T431 -10Q323 -10 236 38ZM528 4T604 44T726 159T772 328Q772 437 726 520T600
649T426 695Q336 695 259 654T137 539T91 369Q91 261 138 178T264 50T436 4Q528 4 604 44Z" />
<glyph unicode="P" glyph-name="P" horiz-adv-x="644" d="M70 5Q93 5 105 18T118 51V649Q118 669 106 682T70 695V700H335Q418 700 476 676T564 609T594 512Q594 444 563 396T478 324T362 300Q313 300 263 315T169 359L173 366Q213 340 258 327T347 314Q432 314
490 362T554 503Q559 586 503 636T333 686H208Q184 686 172 677T160 649V51Q160 31 172 18T208 4V0H70V5Z" />
<glyph unicode="Q" glyph-name="Q" horiz-adv-x="862" d="M701 -110T643 -82T514 -2Q471 -10 431 -10Q323 -10 236 38T100 168T50 350Q50 449 99 531T236 661T431 709Q539 709 626 661T762 531T812 350Q812 270 779 200T685 79T546 6Q609 -44 659 -71T759 -99Q813
-99 864 -62L870 -65Q818 -110 755 -110Q701 -110 643 -82ZM604 37T661 85T748 201T774 349Q768 452 720 531T595 653T427 696Q335 696 255 650T130 525T89 349Q94 267 125 201T209 88Q222 109 248 121T309 133Q329 133 346 129Q386 120 426 95T532 17Q604 37 661
85ZM470 5T498 9L480 22Q418 68 382 91T316 120Q308 122 292 122Q268 122 248 112T215 83Q264 41 326 21T455 4Q470 5 498 9Z" />
<glyph unicode="R" glyph-name="R" horiz-adv-x="674" d="M70 5Q93 5 105 18T118 51V649Q118 669 106 682T70 695V700H309Q441 700 504 647T568 503Q568 446 536 402T453 331T345 301L564 42Q582 25 598 16T634 5V0H514V5Q529 5 529 13Q529 21 517 35L290 305Q244
314 210 341T167 407Q166 411 166 419Q166 433 173 441T194 450Q218 450 246 418L334 314Q384 317 428 341T500 408T528 503Q528 585 471 635T307 686H208Q184 686 172 677T160 649V51Q160 31 172 18T208 4V0H70V5ZM215 394Q197 416 188 416Q184 416 183 412T183
401Q190 375 216 354T276 322L215 394Z" />
<glyph unicode="S" glyph-name="S" horiz-adv-x="605" d="M240 -10T181 14T76 85Q73 87 70 86Q66 84 62 50T57 0H51L50 140H55Q90 75 156 41T302 6Q364 6 417 27T502 88T534 185Q534 236 505 268T434 317T319 356Q246 377 202 395T127 447T95 536Q94 593 121 632T194
691T290 711Q332 711 370 699T435 663Q437 662 441 662Q446 662 450 674T455 700H461V612H456Q434 653 390 675T293 697Q247 697 207 680T142 629T118 548Q119 505 145 479T210 437T315 404Q393 382 440 362T521 303T555 199Q555 132 522 85T432 14T306 -10Q240
-10 181 14Z" />
<glyph unicode="T" glyph-name="T" horiz-adv-x="706" d="M284 5Q307 5 319 18T332 51V649Q332 668 320 677T284 686H101Q82 686 70 670T46 623H40L67 710H72Q74 700 112 700H594Q632 700 634 710H639L666 623H660Q648 654 636 670T605 686H422Q398 686 386 677T374
649V51Q374 31 386 18T422 4V0H284V5Z" />
<glyph unicode="U" glyph-name="U" horiz-adv-x="717" d="M286 -10T230 19T141 102T108 230V649Q108 669 96 682T60 695V700H198V695Q175 695 163 682T150 649V219Q150 155 178 107T255 32T363 6Q466 6 530 64T595 233V649Q595 669 583 682T547 695V700H657V696Q634
696 622 683T609 649V233Q609 156 576 101T484 18T353 -10Q286 -10 230 19Z" />
<glyph unicode="V" glyph-name="V" horiz-adv-x="758" d="M91 648Q80 674 66 684T30 695V700H164V695Q130 695 130 674Q130 668 133 660L393 41L653 661Q656 669 656 674Q656 695 610 695V700H728V695Q700 695 688 686T666 656L391 0H364L91 648Z" />
<glyph unicode="W" glyph-name="W" horiz-adv-x="1041" d="M91 648Q82 669 67 682T30 695V700H162V695Q128 695 128 674Q128 668 131 660L384 41L511 354L391 648Q382 669 367 682T330 695V700H462V695Q428 695 428 674Q428 668 431 660L534 409L636 661Q639 669
639 673Q639 695 593 695V700H711V695Q666 695 649 656L541 391L684 41L936 661Q939 669 939 673Q939 695 893 695V700H1011V695Q966 695 949 656L683 0H656L519 335L383 0H356L91 648Z" />
<glyph unicode="X" glyph-name="X" horiz-adv-x="777" d="M70 5Q105 5 125 17T160 51L371 339L155 649Q142 667 118 681T70 695V700H235V695Q192 695 192 675Q192 667 199 659L398 375L607 659Q614 669 614 676Q614 685 604 690T576 695V700H707V695Q672 695 652
683T617 649L406 362L624 51Q637 33 661 19T707 5V0H542V5Q587 5 587 22Q587 28 579 41L380 327L170 41Q163 31 163 23Q163 5 201 5V0H70V5Z" />
<glyph unicode="Y" glyph-name="Y" horiz-adv-x="727" d="M292 5Q315 5 327 18T340 51V327L115 649Q102 667 78 681T30 695V700H195V695Q152 695 152 675Q152 667 159 659L373 353L597 659Q604 669 604 676Q604 685 594 690T566 695V700H697V695Q662 695 642 683T607
649L382 343V51Q382 31 394 18T430 5V0H292V5Z" />
<glyph unicode="Z" glyph-name="Z" horiz-adv-x="642" d="M558 0T520 0H50L524 686H121Q102 686 90 670T66 623H60L87 710H92Q94 700 132 700H585L110 14H531Q550 14 562 30T586 77H592L565 -10H560Q558 0 520 0Z" />
<glyph unicode="[" glyph-name="bracketleft" horiz-adv-x="242" d="M80 700H202V687H113V-104H202V-117H80V700Z" />
<glyph unicode="\" glyph-name="backslash" horiz-adv-x="449" d="M80 705H103L409 -112H386L80 705Z" />
<glyph unicode="]" glyph-name="bracketright" horiz-adv-x="242" d="M80 -104H169V687H80V700H202V-117H80V-104Z" />
<glyph unicode="^" glyph-name="asciicircum" horiz-adv-x="309" d="M174 788L269 570H246L175 739L103 570H80L174 788Z" />
<glyph unicode="_" glyph-name="underscore" horiz-adv-x="599" d="M80 -48H559V-71H80V-48Z" />
<glyph unicode="`" glyph-name="grave" horiz-adv-x="242" d="M56 873H116L192 750H182L56 873Z" />
<glyph unicode="a" glyph-name="a" horiz-adv-x="499" d="M30 5Q60 5 72 13T90 44L229 672Q223 682 212 688T185 695V700H271L414 52Q420 26 433 16T469 5V0H337V5Q374 5 374 31Q374 37 373 40L307 336H169L103 39Q102 36 102 30Q102 17 113 11T147 5V0H30V5ZM304
350L238 650L172 350H304Z" />
<glyph unicode="b" glyph-name="b" horiz-adv-x="598" d="M70 5Q93 5 105 18T118 51V649Q118 669 106 682T70 695V700H303Q353 699 395 680T462 624T487 541Q487 493 464 458T403 405T323 386Q407 359 449 341T519 287T548 191Q548 96 481 48T295 0H70V5ZM364
401T404 434T450 527Q451 533 451 545Q451 607 406 646T280 686H208Q184 686 172 677T160 649V567Q160 514 181 477T238 420T312 401Q364 401 404 434ZM295 14Q506 22 506 192Q506 247 481 281T417 334T312 377L272 392Q234 402 205 427T160 490V51Q160 32 172
23T208 14H295Z" />
<glyph unicode="c" glyph-name="c" horiz-adv-x="751" d="M323 -10T236 38T100 168T50 350Q50 449 99 531T236 662T431 710Q498 710 553 697T672 653Q674 652 678 652Q682 652 687 669T692 700H698V612H693Q645 653 579 674T447 695Q355 695 273 649T140 518T89
329Q89 241 131 169T247 53T407 4Q417 3 435 3Q588 3 691 101L701 92Q649 44 580 17T431 -10Q323 -10 236 38Z" />
<glyph unicode="d" glyph-name="d" horiz-adv-x="636" d="M70 5Q93 5 105 18T118 51V649Q118 669 106 682T70 695V700H198Q326 700 413 654T543 529T586 351Q586 256 538 176T402 48T199 0H70V5ZM305 14T383 55T504 167T546 323Q546 480 469 583T198 686Q160 686
160 649V51Q160 14 201 14Q305 14 383 55Z" />
<glyph unicode="e" glyph-name="e" horiz-adv-x="512" d="M438 0T400 0H70V5Q93 5 105 18T118 51V649Q118 669 106 682T70 695V700H380Q418 700 420 710H425L452 623H446Q434 654 422 670T391 686H208Q184 686 172 677T160 649V373H306Q327 373 327 397Q327 412
321 436H328L362 296H355Q347 329 337 344T310 359H160V51Q160 32 172 23T208 14H411Q430 14 442 30T466 77H472L448 0L445 -10H440Q438 0 400 0Z" />
<glyph unicode="f" glyph-name="f" horiz-adv-x="482" d="M70 5Q93 5 105 18T118 51V649Q118 669 106 682T70 695V700H380Q418 700 420 710H425L452 623H446Q434 654 422 670T391 686H208Q184 686 172 677T160 649V373H306Q327 373 327 397Q327 412 321 436H328L362
296H355Q347 329 337 344T310 359H160V51Q160 31 172 18T208 4V0H70V5Z" />
<glyph unicode="g" glyph-name="g" horiz-adv-x="862" d="M323 -10T237 38T100 168T50 349Q50 452 100 534T238 663T428 710Q537 710 643 663Q645 662 649 662Q654 662 658 674T663 700H669V612H664Q616 653 553 675T427 697Q334 697 257 656T135 541T90 377Q90
284 134 198T256 57T434 3Q538 3 614 50T721 178V342Q721 362 709 375T673 388V393H802V388Q779 388 767 375T754 342V228Q729 120 643 55T427 -10Q323 -10 237 38Z" />
<glyph unicode="h" glyph-name="h" horiz-adv-x="570" d="M70 5Q93 5 105 18T118 51V649Q118 669 106 682T70 695V700H208V695Q185 695 173 682T160 649V362H410V649Q410 669 398 682T362 695V700H500V695Q477 695 465 682T452 649V51Q452 31 464 18T500 5V0H362V5Q385
5 397 18T410 51V348H160V51Q160 31 172 18T208 5V0H70V5Z" />
<glyph unicode="i" glyph-name="i" horiz-adv-x="278" d="M70 5Q93 5 105 18T118 51V649Q118 669 106 682T70 695V700H208V695Q185 695 173 682T160 649V51Q160 31 172 18T208 5V0H70V5Z" />
<glyph unicode="j" glyph-name="j" horiz-adv-x="278" d="M10 -92Q63 -92 86 -66T114 -3T118 109V649Q118 669 106 682T70 695V700H208V695Q185 695 173 682T160 649V74Q160 -21 126 -60T10 -100V-92Z" />
<glyph unicode="k" glyph-name="k" horiz-adv-x="642" d="M70 5Q93 5 105 18T118 51V649Q118 669 106 682T70 695V700H208V696Q185 696 173 683T160 649V51Q160 31 172 18T208 4V0H70V5ZM482 5Q497 5 497 13Q497 21 485 35L161 431L165 434L450 671Q463 682 463
687Q463 695 432 695V700H554V695Q526 695 505 688T473 671L203 445L532 42Q550 25 566 16T602 5V0H482V5Z" />
<glyph unicode="l" glyph-name="l" horiz-adv-x="512" d="M438 0T400 0H70V5Q93 5 105 18T118 51V649Q118 669 106 682T70 695V700H208V696Q185 696 173 683T160 649V51Q160 32 172 23T208 14H411Q430 14 442 30T466 77H472L448 0L445 -10H440Q438 0 400 0Z" />
<glyph unicode="m" glyph-name="m" horiz-adv-x="714" d="M70 5Q93 5 105 18T118 51V649Q118 669 106 682T70 695V700H154L354 57L554 700H644V695Q621 695 609 682T596 649V51Q596 31 608 18T644 5V0H506V4Q529 4 541 17T554 51V655L351 0H327L132 629V51Q132
31 144 18T180 4V0H70V5Z" />
<glyph unicode="n" glyph-name="n" horiz-adv-x="542" d="M132 632V51Q132 31 144 18T180 4V0H70V5Q93 5 105 18T118 51V649Q118 669 106 682T70 695V700H147L420 120V649Q420 669 408 682T372 695V700H482V696Q459 696 447 683T434 649V-10L132 632Z" />
<glyph unicode="o" glyph-name="o" horiz-adv-x="862" d="M323 -10T236 38T100 168T50 350Q50 449 99 531T236 661T431 709Q539 709 626 661T762 531T812 350Q812 251 763 169T626 38T431 -10Q323 -10 236 38ZM516 3T592 46T716 167T770 349Q775 450 731 529T608
652T435 696Q344 696 268 653T144 532T91 349Q86 249 130 170T252 47T426 3Q516 3 592 46Z" />
<glyph unicode="p" glyph-name="p" horiz-adv-x="537" d="M70 5Q93 5 105 18T118 51V649Q118 669 106 682T70 695V700H303Q353 699 395 680T462 624T487 541Q487 493 464 458T402 404T320 386Q267 386 223 412T160 490V51Q160 31 172 18T208 4V0H70V5ZM364 401T404
434T450 527Q451 533 451 545Q451 607 406 646T280 686H208Q184 686 172 677T160 649V567Q160 514 181 477T238 420T312 401Q364 401 404 434Z" />
<glyph unicode="q" glyph-name="q" horiz-adv-x="862" d="M783 -219T737 -201T653 -159T561 -94Q501 -51 470 -32T410 -10Q307 -5 225 44T97 173T50 350Q50 449 99 531T236 661T431 709Q539 709 626 661T762 531T812 350Q812 257 768 179T647 51T471 -8Q502 -19
532 -40T606 -96Q653 -134 684 -155T754 -192T835 -208Q899 -208 963 -171L969 -174Q902 -219 830 -219Q783 -219 737 -201ZM530 3T609 49T734 174T774 349Q768 452 720 531T595 653T427 696Q335 696 255 650T130 525T89 349Q95 246 143 168T269 46T436 3Q530 3
609 49Z" />
<glyph unicode="r" glyph-name="r" horiz-adv-x="641" d="M542 -10T527 4Q510 18 505 44T499 110L500 183Q500 237 492 278T458 350Q419 399 341 414Q322 418 310 419H160V51Q160 31 172 18T208 4V0H70V5Q93 5 105 18T118 51V649Q118 669 106 682T70 695V700H315Q534
700 534 554Q534 499 494 463T387 418Q483 392 514 327T545 168L544 122Q543 109 543 84Q543 41 552 20T587 -2Q596 -2 601 -1V-9Q593 -10 578 -10Q542 -10 527 4ZM334 429Q404 427 448 462T493 558Q493 637 440 661T313 686H208Q184 686 172 677T160 649V429H334Z"
/>
<glyph unicode="s" glyph-name="s" horiz-adv-x="484" d="M50 147H55Q91 78 146 41T260 4Q302 4 338 22T395 76T416 158Q416 202 396 233T345 284T263 332Q205 363 170 388T111 453T86 553Q86 601 108 636T166 691T241 710Q272 710 300 698T350 663Q357 655 361
675T366 710H372V610H367Q347 652 313 674T242 697Q207 697 176 680T126 632T108 561Q110 517 131 486T182 435T262 388Q319 358 354 334T413 268T437 167Q437 113 413 73T349 12T260 -10Q210 -10 162 14T76 85Q73 87 70 86Q66 84 61 45T56 -10H50V147Z" />
<glyph unicode="t" glyph-name="t" horiz-adv-x="506" d="M184 5Q207 5 219 18T232 51V649Q232 668 220 677T184 686H101Q82 686 70 670T46 623H40L67 710H72Q74 700 112 700H394Q432 700 434 710H439L466 623H460Q448 654 436 670T405 686H322Q298 686 286 677T274
649V51Q274 31 286 18T322 4V0H184V5Z" />
<glyph unicode="u" glyph-name="u" horiz-adv-x="607" d="M224 -10T166 45T108 212V649Q108 669 96 682T60 695V700H198V695Q175 695 163 682T150 649V201Q150 101 198 54T319 6Q393 6 438 57T485 215V649Q485 669 473 682T437 695V700H547V696Q524 696 512 683T499
649V215Q499 101 448 46T309 -10Q224 -10 166 45Z" />
<glyph unicode="v" glyph-name="v" horiz-adv-x="499" d="M85 648Q79 675 66 685T30 695V700H162V695Q125 695 125 669Q125 663 126 660L261 51L394 661Q395 665 395 671Q395 684 385 689T352 695V700H469V695Q440 695 426 685T407 656L264 0H228L85 648Z" />
<glyph unicode="w" glyph-name="w" horiz-adv-x="688" d="M83 648Q77 675 65 685T30 695V700H162V695Q123 695 123 669Q123 663 124 660L259 50L332 379L272 648Q266 675 255 685T221 695V700H343V695Q332 695 322 689T312 668Q312 663 313 660L354 477L395 661Q397
669 397 673Q397 695 366 695V700H467V695Q436 695 425 687T408 656L361 446L450 50L583 661Q584 665 584 671Q584 684 574 689T541 695V700H658V695Q627 695 614 687T596 656L453 0H417L339 347L262 0H226L83 648Z" />
<glyph unicode="x" glyph-name="x" horiz-adv-x="617" d="M70 5Q105 5 122 17T150 51L293 334L146 649Q135 672 115 683T70 695V700H235V695Q214 695 200 689T185 671Q185 665 188 659L317 382L457 659Q461 669 461 672Q461 683 448 689T416 695V700H547V695Q512
695 495 683T467 649L325 366L472 51Q483 28 503 17T547 5V0H382V5Q406 5 420 9T434 27Q434 33 430 41L301 318L161 41Q157 34 157 27Q157 5 201 5V0H70V5Z" />
<glyph unicode="y" glyph-name="y" horiz-adv-x="557" d="M207 5Q230 5 242 18T255 51V333L106 649Q95 672 75 683T30 695V700H195V695Q174 695 160 689T145 671Q145 665 148 659L288 363L437 659Q441 669 441 672Q441 683 428 689T396 695V700H527V695Q492 695
475 683T447 649L297 352V51Q297 31 309 18T345 5V0H207V5Z" />
<glyph unicode="z" glyph-name="z" horiz-adv-x="472" d="M388 0T350 0H50L369 686H112Q93 686 81 670T57 623H51L78 710H83Q85 700 123 700H422L104 14H361Q380 14 392 30T416 77H422L395 -10H390Q388 0 350 0Z" />
<glyph unicode="{" glyph-name="braceleft" horiz-adv-x="293" d="M201 -117T171 -90T140 -25V220Q140 245 122 264T80 289V294Q103 299 121 318T140 362V608Q140 645 170 672T253 700V692Q218 692 198 669T177 608L176 371Q176 348 154 326T96 291Q132 278 154
256T177 211L176 -25Q176 -62 197 -86T253 -111V-117Q201 -117 171 -90Z" />
<glyph unicode="|" glyph-name="bar" horiz-adv-x="143" d="M80 700H103V-117H80V700Z" />
<glyph unicode="}" glyph-name="braceright" horiz-adv-x="293" d="M80 -111Q115 -111 136 -87T157 -25L156 211Q156 234 178 256T237 291Q201 304 179 326T157 371L156 608Q156 645 136 668T80 692V700Q132 700 162 673T193 608V362Q193 337 211 318T253 294V289Q230
284 212 265T193 220V-25Q193 -62 163 -89T80 -117V-111Z" />
<glyph unicode="~" glyph-name="asciitilde" horiz-adv-x="549" d="M391 312T364 321T295 350Q252 369 225 378T171 388Q121 388 80 350V369Q122 407 171 407Q198 407 225 398T295 369Q336 350 363 341T418 331Q468 331 509 369V350Q467 312 418 312Q391 312 364 321Z" />
</font>
</defs>
</svg>
