<svg width="42" height="40" viewBox="0 0 42 40" fill="none" xmlns="http://www.w3.org/2000/svg">
<path d="M1.62288 31.8562H14.3356C14.6987 31.8562 15.0166 31.6124 15.1107 31.2616L16.1139 27.523C16.208 27.1721 16.0547 26.8017 15.7401 26.62C12.2698 24.6164 10.1141 20.8804 10.1141 16.87C10.1141 10.6656 15.1617 5.61798 21.3661 5.61798C27.5704 5.61798 32.618 10.6656 32.618 16.87C32.618 20.8805 30.4623 24.6164 26.9921 26.62C26.6774 26.8017 26.524 27.1721 26.6182 27.523L27.6214 31.2616C27.7155 31.6124 28.0334 31.8562 28.3966 31.8562H41.1092C41.5525 31.8562 41.9118 31.4969 41.9118 31.0536V27.0408C41.9118 26.5975 41.5525 26.2382 41.1092 26.2382H35.3852C37.2328 23.47 38.236 20.1992 38.236 16.87C38.236 7.56782 30.6681 0 21.3661 0C12.0639 0 4.49607 7.56782 4.49607 16.87C4.49607 20.1993 5.49928 23.47 7.34704 26.2382H1.62288C1.17962 26.2382 0.820312 26.5975 0.820312 27.0408V31.0536C0.820312 31.4969 1.17962 31.8562 1.62288 31.8562ZM2.42545 27.8433H8.93765C9.24768 27.8433 9.52994 27.6648 9.66277 27.3847C9.79559 27.1046 9.7553 26.773 9.55908 26.533C7.32922 23.8039 6.10121 20.3722 6.10121 16.87C6.10121 8.45297 12.949 1.60514 21.3661 1.60514C29.7831 1.60514 36.6309 8.45297 36.6309 16.87C36.6309 20.3721 35.4029 23.8039 33.1731 26.5329C32.977 26.773 32.9366 27.1046 33.0694 27.3846C33.2023 27.6647 33.4845 27.8433 33.7945 27.8433H40.3067V30.251H29.0122L28.3242 27.6871C30.0482 26.5782 31.4865 25.0733 32.507 23.3043C33.6297 21.358 34.2231 19.1331 34.2231 16.8699C34.2231 9.78058 28.4555 4.01284 21.3661 4.01284C14.2767 4.01284 8.50892 9.78058 8.50892 16.87C8.50892 19.1331 9.10242 21.358 10.2251 23.3043C11.2456 25.0734 12.6839 26.5782 14.4079 27.6872L13.7199 30.251H2.42545V27.8433Z" fill="#594230"/>
<path d="M41.1092 34.3818H24.9773C24.534 34.3818 24.1747 34.7411 24.1747 35.1844C24.1747 35.6277 24.534 35.987 24.9773 35.987H40.3067V38.3947H2.42545V35.987H17.7542C18.1974 35.987 18.5567 35.6277 18.5567 35.1844C18.5567 34.7411 18.1974 34.3818 17.7542 34.3818H1.62288C1.17962 34.3818 0.820312 34.7411 0.820312 35.1844V39.1972C0.820312 39.6405 1.17962 39.9998 1.62288 39.9998H41.1092C41.5525 39.9998 41.9118 39.6405 41.9118 39.1972V35.1844C41.9118 34.7411 41.5525 34.3818 41.1092 34.3818Z" fill="#594230"/>
<path d="M21.3652 34.3818C20.922 34.3818 20.563 34.7411 20.563 35.1844C20.563 35.6277 20.9225 35.987 21.3658 35.987C21.8091 35.987 22.1684 35.6277 22.1684 35.1844C22.1684 34.7411 21.8091 34.3818 21.3658 34.3818H21.3652Z" fill="#594230"/>
</svg>
