<svg width="38" height="40" viewBox="0 0 38 40" fill="none" xmlns="http://www.w3.org/2000/svg">
<path d="M36.794 33.1682L31.2503 27.6699C31.1026 27.5234 30.9022 27.4411 30.6933 27.4411C30.4844 27.4411 30.284 27.5234 30.1363 27.6699L27.3215 30.4617C27.2395 30.543 27.1795 30.6376 27.1412 30.7384C26.6596 30.6365 26.3032 30.4983 26.0644 30.322C25.473 29.8854 25.1856 28.6658 25.1856 26.594V7.76088C25.1856 7.73424 25.1842 7.7076 25.1815 7.68112C24.8397 4.37799 23.0041 1.82455 19.7259 0.0918091C19.5201 -0.0170192 19.2761 -0.0297536 19.0599 0.0571215C17.27 0.775716 15.9647 1.43087 14.6385 2.59431C13.7113 1.46595 12.7499 0.827435 11.3582 0.0918872C11.1524 -0.016863 10.9085 -0.0297536 10.6922 0.0571996C8.77582 0.826498 7.31533 1.58134 5.87658 2.95158C5.13322 2.02853 4.40853 1.29064 3.71535 0.751732C3.55071 0.623763 3.3415 0.566029 3.13402 0.591107C2.92638 0.616263 2.73741 0.722201 2.6087 0.885717L0.166958 3.98603C-0.100548 4.32572 -0.0401306 4.81604 0.301813 5.0819C1.159 5.74815 2.35222 7.32604 2.89329 8.34323V31.0245C2.89329 31.456 3.24595 31.8058 3.681 31.8058H7.66231C8.09737 31.8058 8.45002 31.456 8.45002 31.0245V8.47448C8.99961 7.59557 9.70799 6.84362 10.5268 6.26721C10.8228 6.66838 11.1119 7.22198 11.261 7.95706V15.9377C11.261 16.3692 11.6136 16.7189 12.0487 16.7189C12.4837 16.7189 12.8364 16.3692 12.8364 15.9377V7.88213C12.8364 7.83409 12.8319 7.78612 12.8231 7.73893C12.5378 6.22158 11.7963 5.24158 11.2245 4.68658C10.9712 4.4408 10.5835 4.39299 10.2773 4.56971C8.93549 5.34424 7.79615 6.48299 6.98237 7.86299C6.91179 7.9826 6.87461 8.11878 6.87461 8.25737V30.2431H4.46871V8.15612C4.46871 8.03729 4.44138 7.9201 4.38884 7.81331C3.90644 6.83354 2.8439 5.34541 1.86053 4.37385L3.33953 2.49588C3.92275 3.04603 4.54528 3.76299 5.17024 4.60705C5.31006 4.79588 5.52794 4.91244 5.76378 4.92479C5.99986 4.93658 6.22861 4.84369 6.38757 4.67057C7.77039 3.16408 9.08153 2.41369 10.9412 1.64478C12.2426 2.35556 13.0172 2.949 13.8865 4.20705C14.0193 4.39908 14.2315 4.52244 14.4654 4.54346C14.6991 4.56455 14.9303 4.48088 15.0956 4.31557C16.397 3.01416 17.566 2.36361 19.3055 1.64611C21.9131 3.11908 23.3227 5.13611 23.6101 7.8019V26.5942C23.6101 29.3025 24.0627 30.7922 25.1235 31.5755C25.8343 32.1005 26.882 32.379 28.5203 32.4787C28.8472 32.498 29.1523 32.316 29.2868 32.0199C29.4213 31.7238 29.3571 31.3762 29.1256 31.1465L28.9923 31.0144L30.6932 29.3274L35.1229 33.7209L30.6932 38.1142L28.9923 36.4273L29.2148 36.2067C29.4349 35.9884 29.5047 35.6621 29.3931 35.3739C29.2814 35.0858 29.009 34.8899 28.6983 34.8741C26.3522 34.7544 24.8575 34.3387 23.7005 33.4844C21.9741 32.2095 21.2042 30.0845 21.2042 26.5943V7.88213C21.2042 7.83409 21.1997 7.78612 21.1909 7.73893C20.9056 6.22174 20.1641 5.24166 19.5923 4.68666C19.3391 4.44088 18.9514 4.39299 18.6452 4.56979C17.3033 5.34432 16.1639 6.48315 15.3502 7.86315C15.2796 7.98284 15.2424 8.11893 15.2424 8.25753V30.2433H12.8365V22.969C12.8365 22.5375 12.4838 22.1878 12.0487 22.1878C11.6137 22.1878 11.261 22.5375 11.261 22.969V31.0245C11.261 31.456 11.6137 31.8058 12.0487 31.8058H16.0301C16.4651 31.8058 16.8178 31.456 16.8178 31.0245V8.47448C17.3673 7.59557 18.0757 6.84362 18.8945 6.26721C19.1906 6.66846 19.4796 7.22206 19.6287 7.95706V26.594C19.6287 30.6269 20.5943 33.1384 22.7596 34.7373C23.8793 35.5642 25.2527 36.0644 27.1007 36.3022C27.0618 36.5414 27.1354 36.795 27.3213 36.9794L30.1362 39.7712C30.2839 39.9177 30.4843 40 30.6932 40C30.9021 40 31.1025 39.9177 31.2502 39.7712L36.7938 34.273C36.9415 34.1265 37.0245 33.9277 37.0245 33.7205C37.0245 33.5134 36.9417 33.3148 36.794 33.1682Z" fill="#594230"/>
<path d="M12.0487 20.2344C12.4837 20.2344 12.8364 19.8846 12.8364 19.4531C12.8364 19.0216 12.4837 18.6719 12.0487 18.6719H12.0481C11.6131 18.6719 11.2607 19.0216 11.2607 19.4531C11.2607 19.8846 11.6136 20.2344 12.0487 20.2344Z" fill="#594230"/>
</svg>
