<svg width="29" height="40" viewBox="0 0 29 40" fill="none" xmlns="http://www.w3.org/2000/svg">
<path d="M28.3426 13.4885L24.8836 0.579246C24.772 0.162529 24.3434 -0.0848915 23.9268 0.0268267L11.0202 3.48509C10.6035 3.59673 10.3563 4.02478 10.4676 4.44142L11.4828 8.24062C11.5363 8.44085 11.6672 8.61171 11.8467 8.71538C12.0261 8.81905 12.2395 8.84725 12.4397 8.7935L17.0455 7.55937L8.18512 22.9063L3.82944 20.3915C3.45631 20.176 2.97881 20.3035 2.7628 20.6765L0.793981 24.0759C0.689997 24.2553 0.661716 24.4687 0.715231 24.6691C0.768825 24.8694 0.899762 25.0402 1.07937 25.144L5.43966 27.6615L0.129219 36.8593C-0.0863274 37.2326 0.0412501 37.7099 0.414217 37.9259L3.8135 39.8948C3.9335 39.9643 4.06873 40 4.20506 40C4.27256 40 4.34037 39.9912 4.4067 39.9735C4.60701 39.9199 4.77787 39.789 4.88162 39.6094L10.1948 30.4068L14.5505 32.9215C14.9239 33.1373 15.4013 33.0095 15.6171 32.6365L17.5859 29.2372C17.6898 29.0578 17.7182 28.8444 17.6647 28.644C17.6112 28.4436 17.4802 28.2728 17.3005 28.169L12.9402 25.6516L15.8885 20.5449C16.1043 20.1712 15.9763 19.6934 15.6026 19.4777C15.2288 19.262 14.7511 19.39 14.5354 19.7636L11.1964 25.5469C11.0928 25.7263 11.0647 25.9395 11.1184 26.1397C11.1721 26.3398 11.3029 26.5105 11.4824 26.614L15.8419 29.131L14.6561 31.1782L10.2995 28.6629C9.92581 28.4472 9.448 28.5752 9.2323 28.9489L3.91975 38.1506L1.87249 36.9649L7.18348 27.7661C7.39926 27.3924 7.27122 26.9146 6.89755 26.6989L2.53819 24.1819L3.72389 22.1347L8.08051 24.65C8.25996 24.7537 8.47316 24.7817 8.67332 24.728C8.87348 24.6744 9.0441 24.5435 9.14769 24.3641L19.3418 6.70719C19.4998 6.43352 19.4773 6.09164 19.285 5.84102C19.0926 5.59032 18.768 5.48032 18.463 5.56196L12.7905 7.08187L12.1787 4.7922L23.5766 1.7383L26.6311 13.1377L24.3414 13.7496L22.8219 8.07859C22.7401 7.77335 22.4825 7.54749 22.1693 7.50624C21.8555 7.46499 21.5487 7.61656 21.3907 7.89023L18.0516 13.6737C17.8358 14.0474 17.9638 14.5252 18.3375 14.7409C18.7113 14.9567 19.189 14.8286 19.4047 14.455L21.8008 10.3048L23.0342 14.9081C23.1458 15.3246 23.573 15.5719 23.9905 15.4607L27.7897 14.4454C27.9899 14.3919 28.1607 14.261 28.2644 14.0815C28.3681 13.9021 28.3963 13.6887 28.3426 13.4885Z" fill="#594230"/>
<path d="M16.9699 16.3281C16.5385 16.3281 16.189 16.6779 16.189 17.1094C16.189 17.5409 16.539 17.8906 16.9705 17.8906C17.402 17.8906 17.7518 17.5409 17.7518 17.1094C17.7518 16.6779 17.4019 16.3281 16.9705 16.3281H16.9699Z" fill="#594230"/>
</svg>
