<svg width="44" height="40" viewBox="0 0 44 40" fill="none" xmlns="http://www.w3.org/2000/svg">
<path d="M12.4018 8.96728C10.8034 8.5425 9.13509 8.75931 7.70418 9.57781C6.27268 10.3966 5.2485 11.7208 4.82013 13.3062C3.93665 16.5766 5.89921 19.9498 9.195 20.8256C9.72996 20.9678 10.2674 21.0356 10.7966 21.0356C13.5295 21.0356 16.0368 19.2252 16.7767 16.4868C17.6601 13.2164 15.6976 9.84318 12.4018 8.96728ZM15.1372 16.0512C14.4963 18.4234 12.0278 19.8359 9.63415 19.1999C7.24229 18.5643 5.81808 16.1159 6.45937 13.742C6.77029 12.5911 7.5135 11.6301 8.55202 11.036C9.59045 10.4421 10.8017 10.2848 11.9624 10.5933C14.3543 11.2289 15.7786 13.6773 15.1372 16.0512Z" fill="#594230"/>
<path d="M34.9916 19.1739C31.6944 18.2976 28.2931 20.244 27.41 23.5129C26.5265 26.7833 28.489 30.1566 31.7848 31.0325C32.3212 31.1751 32.8653 31.2456 33.4054 31.2456C34.4772 31.2456 35.5335 30.9679 36.4839 30.4242C37.9138 29.6062 38.9375 28.2812 39.3664 26.6935C40.2501 23.423 38.2875 20.0497 34.9916 19.1739ZM37.7271 26.2577C37.4156 27.4109 36.6729 28.3727 35.6359 28.9659C34.599 29.5592 33.3872 29.7155 32.2241 29.4064C29.8322 28.7707 28.408 26.3222 29.0493 23.9485C29.5863 21.9611 31.4059 20.6473 33.3895 20.6473C33.7737 20.6473 34.164 20.6965 34.5523 20.7998C36.9442 21.4355 38.3685 23.8838 37.7271 26.2577Z" fill="#594230"/>
<path d="M42.4159 19.9326C41.0218 17.5392 38.7738 15.8277 36.086 15.1134C33.3996 14.3995 30.5905 14.7681 28.1759 16.1514C25.7617 17.5345 24.0356 19.7636 23.3158 22.4282C22.1672 26.6792 23.8976 31.1353 27.4134 33.5802C23.6609 34.3817 19.692 34.2774 15.9328 33.2786C11.9052 32.2082 8.37384 30.1885 5.43683 27.2756C5.10537 26.9471 4.56812 26.9471 4.23674 27.2756L1.23635 30.2514C1.07724 30.4092 0.987793 30.6233 0.987793 30.8465C0.987793 31.0697 1.07724 31.2838 1.23635 31.4416C4.91545 35.0905 9.34422 37.6219 14.3995 38.9653C16.9928 39.6545 19.6681 40.0002 22.3344 40.0002C24.4759 40.0002 26.6117 39.7772 28.6943 39.3298C31.9933 38.6213 35.1692 37.2819 37.6373 35.5586C40.6815 33.433 42.6409 30.8155 43.4613 27.7788C44.1815 25.113 43.8102 22.3265 42.4159 19.9326ZM41.8218 27.3432C40.2477 33.1703 33.8228 36.506 28.335 37.6848C23.9223 38.6326 19.2553 38.5132 14.8387 37.3394C10.3506 36.1467 6.38735 33.9612 3.04539 30.8377L4.84655 29.0513C7.87172 31.8622 11.4497 33.8298 15.4936 34.9045C19.5211 35.9748 23.7763 36.0838 27.7992 35.2198C28.522 35.0645 29.2366 34.8766 29.9233 34.6614C30.2626 34.5551 30.499 34.2501 30.5154 33.8975C30.5316 33.545 30.3245 33.2198 29.9964 33.083C25.9988 31.4164 23.8314 27.0231 24.9552 22.8639C25.5577 20.6335 27.003 18.7674 29.0248 17.6091C31.0467 16.4507 33.3983 16.1419 35.6467 16.7393C37.8967 17.3372 39.7788 18.7704 40.9463 20.7746C42.1137 22.7791 42.4247 25.1119 41.8218 27.3432Z" fill="#594230"/>
<path d="M8.10084 24.8869C8.99739 25.1252 9.90505 25.2408 10.804 25.2408C13.9613 25.2408 17.0038 23.8137 19.0162 21.2635C19.3051 20.8974 19.2401 20.3684 18.8709 20.0819C18.502 19.7954 17.9684 19.8599 17.6797 20.226C15.5145 22.9698 11.927 24.1611 8.54016 23.261C3.88932 22.025 1.11915 17.2681 2.3649 12.6571C3.93905 6.83011 10.364 3.49434 15.8517 2.31553C20.2644 1.36776 24.9314 1.48718 29.348 2.66086C33.8362 3.85355 37.7994 6.03913 41.1413 9.16256L39.3402 10.949C36.315 8.13811 32.7371 6.17052 28.6932 5.0959C24.6656 4.02559 20.4105 3.91651 16.3876 4.78054C15.6651 4.93574 14.9504 5.12359 14.2635 5.33889C13.9241 5.44527 13.6878 5.75028 13.6714 6.10285C13.6551 6.45541 13.8623 6.78062 14.1903 6.91739C16.9982 8.08787 19.0104 10.6839 19.4416 13.6924C19.5076 14.1527 19.9371 14.4728 20.4012 14.4072C20.8652 14.3418 21.188 13.9157 21.1219 13.4555C20.712 10.5949 19.1035 8.04629 16.7704 6.42074C20.5237 5.61857 24.4939 5.72268 28.254 6.72179C32.2816 7.79211 35.813 9.81181 38.7499 12.7247C39.0814 13.0534 39.6186 13.0534 39.9501 12.7247L42.9505 9.74902C43.1096 9.59121 43.199 9.3771 43.199 9.15389C43.199 8.93069 43.1096 8.71657 42.9505 8.55877C39.2714 4.9099 34.8427 2.37849 29.7874 1.03505C25.111 -0.207803 20.168 -0.333881 15.4924 0.670369C12.1934 1.37895 9.01733 2.71834 6.54943 4.44161C3.50533 6.56718 1.54591 9.1847 0.725485 12.2214C-0.762451 17.729 2.54607 23.4107 8.10084 24.8869Z" fill="#594230"/>
<path d="M20.0505 16.5127C19.5818 16.5127 19.2021 16.8895 19.2021 17.3543C19.2021 17.8192 19.5823 18.196 20.051 18.196C20.5197 18.196 20.8996 17.8192 20.8996 17.3543C20.8996 16.8895 20.5197 16.5127 20.051 16.5127H20.0505Z" fill="#594230"/>
</svg>
