<svg width="145" height="29" viewBox="0 0 145 29" fill="none" xmlns="http://www.w3.org/2000/svg">
<path d="M44.7199 28.5295C44.7996 28.5295 44.8603 28.5065 44.9019 28.4603C44.9469 28.4142 44.9694 28.3557 44.9694 28.2847V25.1015C44.9694 25.0128 44.94 24.9471 44.8811 24.9046H44.8707V24.8992C44.8326 24.8708 44.7823 24.8567 44.7199 24.8567V24.83H45.8375C46.281 24.83 46.6119 24.9188 46.8302 25.0962C47.0485 25.2736 47.149 25.5167 47.1317 25.8254C47.1213 26.0064 47.0555 26.1626 46.9342 26.2939C46.8129 26.4252 46.657 26.521 46.4664 26.5813C46.8372 26.6133 47.1126 26.7162 47.2928 26.8901C47.4765 27.0604 47.5683 27.2751 47.5683 27.5341C47.5683 27.8677 47.4505 28.1232 47.2149 28.3007C46.9792 28.4745 46.6587 28.5597 46.2533 28.5562H44.7199V28.5295ZM45.9622 26.5813C46.2221 26.5813 46.4439 26.5139 46.6275 26.379C46.8112 26.2406 46.9099 26.0561 46.9238 25.8254C46.9411 25.5345 46.8597 25.3091 46.6795 25.1494C46.5028 24.9862 46.2186 24.9046 45.8271 24.9046H45.4372C45.3541 24.9046 45.2917 24.9205 45.2501 24.9525C45.2085 24.9844 45.1877 25.0341 45.1877 25.1015V26.3631C45.4303 26.5086 45.6885 26.5813 45.9622 26.5813ZM46.2533 28.4816C46.9844 28.4533 47.35 28.1285 47.35 27.5075C47.35 27.2343 47.253 27.0196 47.0589 26.8634C46.8683 26.7073 46.5686 26.6345 46.1597 26.6452C46.1285 26.6487 46.0817 26.6505 46.0194 26.6505C45.7214 26.6505 45.4442 26.576 45.1877 26.4269V28.2847C45.1877 28.3521 45.2085 28.4018 45.2501 28.4337C45.2917 28.4657 45.3541 28.4816 45.4372 28.4816H46.2533Z" fill="#F0EAD2"/>
<path d="M49.2404 28.5295C49.3201 28.5295 49.3807 28.5065 49.4223 28.4603C49.4674 28.4142 49.4899 28.3557 49.4899 28.2847V26.8155L48.3204 25.1015C48.2753 25.0376 48.2095 24.9809 48.1229 24.9312C48.0397 24.8815 47.9583 24.8567 47.8786 24.8567V24.83H48.7362V24.8567C48.5872 24.8567 48.5127 24.8921 48.5127 24.9631C48.5127 24.9915 48.5248 25.0199 48.5491 25.0483L49.6614 26.6771L50.8257 25.0483C50.85 25.0128 50.8621 24.9826 50.8621 24.9578C50.8621 24.9259 50.843 24.901 50.8049 24.8833C50.7703 24.8655 50.7235 24.8567 50.6646 24.8567V24.83H51.3455V24.8567C51.2242 24.8567 51.1289 24.8797 51.0596 24.9259C50.9903 24.9684 50.9297 25.027 50.8777 25.1015L49.7082 26.7304V28.2847C49.7082 28.3557 49.729 28.4142 49.7706 28.4603C49.8156 28.5065 49.878 28.5295 49.9577 28.5295V28.5562H49.2404V28.5295Z" fill="#F0EAD2"/>
<path d="M55.2793 28.6094C54.9189 28.6094 54.588 28.5242 54.2866 28.3539C53.9886 28.1835 53.7529 27.9529 53.5797 27.6619C53.4064 27.3674 53.3198 27.0462 53.3198 26.6984C53.3198 26.3329 53.4064 26.0047 53.5797 25.7137C53.7564 25.4191 53.9955 25.1902 54.2969 25.027C54.5984 24.8602 54.9276 24.7768 55.2845 24.7768C55.6622 24.7768 56.0347 24.8602 56.402 25.027C56.409 25.0305 56.4194 25.0323 56.4332 25.0323C56.4505 25.0323 56.4661 25.011 56.48 24.9684C56.4973 24.9223 56.506 24.8762 56.506 24.83H56.5372V25.2985H56.5112C56.3449 25.153 56.1525 25.0412 55.9342 24.9631C55.7159 24.885 55.4976 24.846 55.2793 24.846C54.9571 24.846 54.6625 24.9205 54.3957 25.0696C54.1289 25.2151 53.9175 25.4173 53.7616 25.6764C53.6056 25.9355 53.5277 26.2264 53.5277 26.5494C53.5277 26.9184 53.616 27.2538 53.7928 27.5554C53.9695 27.8571 54.2017 28.0948 54.4893 28.2687C54.7769 28.4391 55.0801 28.5242 55.3989 28.5242C55.8251 28.5242 56.208 28.3663 56.5476 28.0505L56.5736 28.0877C56.3726 28.2723 56.1716 28.4053 55.9706 28.487C55.7731 28.5686 55.5427 28.6094 55.2793 28.6094Z" fill="#F0EAD2"/>
<path d="M57.308 28.5295C57.3877 28.5295 57.4484 28.5065 57.4899 28.4603C57.535 28.4142 57.5575 28.3557 57.5575 28.2847V25.1015C57.5575 25.0305 57.535 24.972 57.4899 24.9259C57.4484 24.8797 57.3877 24.8567 57.308 24.8567V24.83H58.5503C59.0077 24.83 59.3455 24.9259 59.5639 25.1175C59.7856 25.3056 59.8965 25.5593 59.8965 25.8787C59.8965 26.081 59.8411 26.2619 59.7302 26.4216C59.6193 26.5778 59.4755 26.702 59.2988 26.7942C59.122 26.8865 58.9349 26.9397 58.7374 26.9539L59.8757 28.3326C59.9381 28.3929 59.997 28.4408 60.0524 28.4763C60.1079 28.5083 60.1703 28.526 60.2396 28.5295V28.5562H59.6158V28.5295C59.6678 28.5295 59.6938 28.5154 59.6938 28.487C59.6938 28.4586 59.673 28.4195 59.6314 28.3699L58.4515 26.9326C58.2921 26.9007 58.1535 26.8368 58.0357 26.741C57.9179 26.6416 57.8434 26.5245 57.8122 26.3897C57.8087 26.3755 57.807 26.3542 57.807 26.3258C57.807 26.2761 57.8191 26.2371 57.8434 26.2087C57.8711 26.1768 57.9075 26.1608 57.9525 26.1608C58.0357 26.1608 58.1258 26.2176 58.2228 26.3311L58.6802 26.8847C58.8535 26.8741 59.0164 26.8262 59.1688 26.741C59.3248 26.6523 59.4495 26.5334 59.5431 26.3844C59.6401 26.2353 59.6886 26.0668 59.6886 25.8787C59.6886 25.5877 59.5881 25.3535 59.3871 25.176C59.1896 24.9951 58.9072 24.9046 58.5399 24.9046H58.0253C57.9422 24.9046 57.8798 24.9205 57.8382 24.9525C57.7966 24.9844 57.7758 25.0341 57.7758 25.1015V28.2847C57.7758 28.3557 57.7966 28.416 57.8382 28.4657C57.8832 28.5118 57.9456 28.5349 58.0253 28.5349V28.5562H57.308V28.5295ZM58.0617 26.4589C57.9993 26.3808 57.9525 26.3418 57.9214 26.3418C57.9075 26.3418 57.8971 26.3507 57.8902 26.3684C57.8867 26.3826 57.8884 26.4003 57.8954 26.4216C57.9196 26.5139 57.9768 26.5991 58.0669 26.6771C58.1605 26.7517 58.2644 26.8067 58.3788 26.8421L58.0617 26.4589Z" fill="#F0EAD2"/>
<path d="M61.8386 28.5295C61.9183 28.5295 61.979 28.5065 62.0206 28.4603C62.0656 28.4142 62.0881 28.3557 62.0881 28.2847V26.8155L60.9186 25.1015C60.8736 25.0376 60.8077 24.9809 60.7211 24.9312C60.638 24.8815 60.5565 24.8567 60.4768 24.8567V24.83H61.3345V24.8567C61.1855 24.8567 61.111 24.8921 61.111 24.9631C61.111 24.9915 61.1231 25.0199 61.1473 25.0483L62.2597 26.6771L63.4239 25.0483C63.4482 25.0128 63.4603 24.9826 63.4603 24.9578C63.4603 24.9259 63.4413 24.901 63.4032 24.8833C63.3685 24.8655 63.3217 24.8567 63.2628 24.8567V24.83H63.9437V24.8567C63.8224 24.8567 63.7271 24.8797 63.6578 24.9259C63.5885 24.9684 63.5279 25.027 63.4759 25.1015L62.3064 26.7304V28.2847C62.3064 28.3557 62.3272 28.4142 62.3688 28.4603C62.4139 28.5065 62.4762 28.5295 62.5559 28.5295V28.5562H61.8386V28.5295Z" fill="#F0EAD2"/>
<path d="M65.5825 28.6094C65.3538 28.6094 65.1372 28.5668 64.9328 28.4816C64.7284 28.3965 64.5464 28.2705 64.387 28.1037C64.3766 28.0966 64.3662 28.0948 64.3558 28.0984C64.342 28.1055 64.3264 28.1694 64.3091 28.29C64.2952 28.4107 64.2883 28.4994 64.2883 28.5562H64.2571L64.2519 27.8109H64.2779C64.3992 28.0416 64.5742 28.219 64.8029 28.3432C65.035 28.4639 65.288 28.5242 65.5617 28.5242C65.7766 28.5242 65.9758 28.487 66.1595 28.4124C66.3431 28.3379 66.4904 28.2297 66.6013 28.0877C66.7122 27.9422 66.7676 27.7701 66.7676 27.5714C66.7676 27.3904 66.7174 27.2431 66.6169 27.1296C66.5164 27.016 66.3916 26.9291 66.2426 26.8688C66.0971 26.8049 65.8996 26.7357 65.6501 26.6612C65.3971 26.5866 65.1927 26.5174 65.0368 26.4536C64.8843 26.3897 64.7543 26.2974 64.6469 26.1768C64.543 26.0561 64.4893 25.8982 64.4858 25.703C64.4823 25.5007 64.5274 25.3304 64.6209 25.192C64.718 25.0501 64.8444 24.9454 65.0004 24.8779C65.1563 24.807 65.3226 24.7715 65.4994 24.7715C65.6449 24.7715 65.7835 24.7946 65.9152 24.8407C66.0468 24.8833 66.1595 24.9454 66.253 25.027C66.26 25.0305 66.2704 25.0323 66.2842 25.0323C66.3015 25.0323 66.3171 25.011 66.331 24.9684C66.3483 24.9223 66.357 24.8762 66.357 24.83H66.3882V25.2985H66.3622C66.2859 25.153 66.1699 25.0412 66.0139 24.9631C65.8615 24.885 65.6951 24.846 65.5149 24.846C65.3555 24.846 65.2048 24.8779 65.0627 24.9418C64.9241 25.0021 64.8115 25.0926 64.7249 25.2133C64.6417 25.3304 64.6019 25.4724 64.6053 25.6391C64.6088 25.7917 64.6556 25.9159 64.7457 26.0118C64.8392 26.104 64.9519 26.1768 65.0835 26.23C65.2187 26.2832 65.4006 26.3418 65.6293 26.4057C65.8996 26.4837 66.1162 26.5582 66.279 26.6292C66.4453 26.7002 66.5857 26.8049 66.7 26.9433C66.8178 27.0817 66.8768 27.2662 66.8768 27.4969C66.8768 27.7346 66.8178 27.9369 66.7 28.1037C66.5857 28.2705 66.4297 28.3965 66.2322 28.4816C66.0382 28.5668 65.8216 28.6094 65.5825 28.6094Z" fill="#F0EAD2"/>
<path d="M68.4439 28.5295C68.5236 28.5295 68.5842 28.5065 68.6258 28.4603C68.6708 28.4142 68.6934 28.3557 68.6934 28.2847V25.1015C68.6934 25.0341 68.6726 24.9844 68.631 24.9525C68.5894 24.9205 68.527 24.9046 68.4439 24.9046H67.4927C67.4268 24.9046 67.3731 24.9329 67.3316 24.9897C67.29 25.0465 67.2484 25.1299 67.2068 25.2399H67.1756L67.316 24.7768H67.342C67.3489 24.8123 67.4182 24.83 67.5499 24.83H70.0552C70.1869 24.83 70.2562 24.8123 70.2631 24.7768H70.2891L70.4294 25.2399H70.3982C70.3566 25.1299 70.3151 25.0465 70.2735 24.9897C70.2319 24.9329 70.1782 24.9046 70.1124 24.9046H69.1612C69.078 24.9046 69.0156 24.9205 68.974 24.9525C68.9325 24.9844 68.9117 25.0341 68.9117 25.1015V28.2847C68.9117 28.3557 68.9325 28.416 68.974 28.4657C69.0191 28.5118 69.0815 28.5349 69.1612 28.5349V28.5562H68.4439V28.5295Z" fill="#F0EAD2"/>
<path d="M70.343 28.5295C70.4989 28.5295 70.6064 28.4603 70.6653 28.3219L72.0375 24.9418C71.989 24.885 71.9214 24.8567 71.8348 24.8567V24.83H72.2298L73.6384 28.2847C73.6696 28.3592 73.7129 28.4195 73.7683 28.4657C73.8238 28.5083 73.8879 28.5295 73.9606 28.5295V28.5562H73.2745V28.5295C73.3889 28.5295 73.4461 28.4941 73.4461 28.4231C73.4461 28.4053 73.4409 28.3805 73.4305 28.3486L72.7859 26.7676H71.3774L70.7328 28.3539C70.7224 28.3787 70.7172 28.4018 70.7172 28.4231C70.7172 28.4941 70.7952 28.5295 70.9511 28.5295V28.5562H70.343V28.5295ZM72.7548 26.6931L72.079 25.0323L71.4085 26.6931H72.7548Z" fill="#F0EAD2"/>
<path d="M76.9466 28.6094C76.9396 28.5739 76.8703 28.5562 76.7387 28.5562H74.3997V28.5295C74.4794 28.5295 74.54 28.5065 74.5816 28.4603C74.6266 28.4142 74.6492 28.3557 74.6492 28.2847V25.1015C74.6492 25.0305 74.6266 24.972 74.5816 24.9259C74.54 24.8797 74.4794 24.8567 74.3997 24.8567V24.83H75.117V24.8513C75.0373 24.8513 74.9749 24.8744 74.9298 24.9205C74.8883 24.9667 74.8675 25.027 74.8675 25.1015V28.2847C74.8675 28.3521 74.8883 28.4018 74.9298 28.4337C74.9714 28.4657 75.0338 28.4816 75.117 28.4816H76.7958C76.8617 28.4816 76.9154 28.4533 76.957 28.3965C76.9986 28.3397 77.0401 28.2563 77.0817 28.1463H77.1129L76.9882 28.5562L76.9726 28.6094H76.9466Z" fill="#F0EAD2"/>
<path d="M79.2445 28.5295C79.3242 28.5295 79.3849 28.5065 79.4265 28.4603C79.4715 28.4142 79.494 28.3557 79.494 28.2847V25.1015C79.494 25.0305 79.4715 24.972 79.4265 24.9259C79.3849 24.8797 79.3242 24.8567 79.2445 24.8567V24.83H80.622C80.9096 24.83 81.1539 24.8744 81.3548 24.9631C81.5558 25.0483 81.7083 25.1672 81.8122 25.3198C81.9162 25.4688 81.9682 25.6391 81.9682 25.8308C81.9682 26.0721 81.9127 26.2779 81.8018 26.4482C81.6944 26.6186 81.5489 26.7463 81.3652 26.8315C81.1816 26.9167 80.9806 26.9593 80.7623 26.9593C80.5925 26.9593 80.421 26.9326 80.2477 26.8794C80.0745 26.8262 79.9116 26.7481 79.7591 26.6452L79.7799 26.6079C79.9185 26.7002 80.0658 26.7694 80.2217 26.8155C80.3777 26.8617 80.5319 26.8847 80.6843 26.8847C80.9789 26.8847 81.2266 26.7996 81.4276 26.6292C81.6286 26.4553 81.7395 26.2052 81.7603 25.8787C81.7776 25.5841 81.6875 25.3481 81.49 25.1707C81.2959 24.9933 81.0031 24.9046 80.6116 24.9046H79.9618C79.8787 24.9046 79.8163 24.9205 79.7747 24.9525C79.7331 24.9844 79.7123 25.0341 79.7123 25.1015V28.2847C79.7123 28.3557 79.7331 28.416 79.7747 28.4657C79.8198 28.5118 79.8821 28.5349 79.9618 28.5349V28.5562H79.2445V28.5295Z" fill="#F0EAD2"/>
<path d="M85.0869 28.6094C85.08 28.5739 85.0107 28.5562 84.879 28.5562H82.54V28.5295C82.6197 28.5295 82.6804 28.5065 82.722 28.4603C82.767 28.4142 82.7895 28.3557 82.7895 28.2847V25.1015C82.7895 25.0305 82.767 24.972 82.722 24.9259C82.6804 24.8797 82.6197 24.8567 82.54 24.8567V24.83H83.2573V24.8513C83.1776 24.8513 83.1153 24.8744 83.0702 24.9205C83.0286 24.9667 83.0078 25.027 83.0078 25.1015V28.2847C83.0078 28.3521 83.0286 28.4018 83.0702 28.4337C83.1118 28.4657 83.1742 28.4816 83.2573 28.4816H84.9362C85.002 28.4816 85.0558 28.4533 85.0973 28.3965C85.1389 28.3397 85.1805 28.2563 85.2221 28.1463H85.2533L85.1285 28.5562L85.1129 28.6094H85.0869Z" fill="#F0EAD2"/>
<path d="M85.6682 28.5295C85.8242 28.5295 85.9316 28.4603 85.9905 28.3219L87.3627 24.9418C87.3142 24.885 87.2466 24.8567 87.16 24.8567V24.83H87.555L88.9636 28.2847C88.9948 28.3592 89.0381 28.4195 89.0935 28.4657C89.149 28.5083 89.2131 28.5295 89.2859 28.5295V28.5562H88.5998V28.5295C88.7141 28.5295 88.7713 28.4941 88.7713 28.4231C88.7713 28.4053 88.7661 28.3805 88.7557 28.3486L88.1112 26.7676H86.7026L86.0581 28.3539C86.0477 28.3787 86.0425 28.4018 86.0425 28.4231C86.0425 28.4941 86.1204 28.5295 86.2764 28.5295V28.5562H85.6682V28.5295ZM88.08 26.6931L87.4043 25.0323L86.7338 26.6931H88.08Z" fill="#F0EAD2"/>
<path d="M90.0472 25.1015V28.2847C90.0472 28.3557 90.068 28.416 90.1095 28.4657C90.1546 28.5118 90.217 28.5349 90.2967 28.5349V28.5562H89.7249V28.5295C89.8046 28.5295 89.8652 28.5065 89.9068 28.4603C89.9519 28.4142 89.9744 28.3557 89.9744 28.2847V25.1015C89.9744 25.0305 89.9519 24.972 89.9068 24.9259C89.8652 24.8797 89.8046 24.8567 89.7249 24.8567V24.83H90.1147L92.6668 28.1463V25.1015C92.6668 25.0305 92.6443 24.972 92.5993 24.9259C92.5577 24.8797 92.497 24.8567 92.4173 24.8567V24.83H92.9891V24.8513C92.9094 24.8513 92.847 24.8744 92.802 24.9205C92.7604 24.9667 92.7396 25.027 92.7396 25.1015V28.6041L90.0472 25.1015Z" fill="#F0EAD2"/>
<path d="M96.2322 28.6094C96.2253 28.5739 96.156 28.5562 96.0243 28.5562H93.6853V28.5295C93.765 28.5295 93.8257 28.5065 93.8673 28.4603C93.9123 28.4142 93.9348 28.3557 93.9348 28.2847V25.1015C93.9348 25.0305 93.9123 24.972 93.8673 24.9259C93.8257 24.8797 93.765 24.8567 93.6853 24.8567V24.83H95.9204C96.0521 24.83 96.1214 24.8123 96.1283 24.7768H96.1543L96.2946 25.2399H96.2634C96.2218 25.1299 96.1803 25.0465 96.1387 24.9897C96.0971 24.9329 96.0434 24.9046 95.9776 24.9046H94.4026C94.3195 24.9046 94.2571 24.9205 94.2155 24.9525C94.1739 24.9844 94.1531 25.0341 94.1531 25.1015V26.5707H95.5357C95.6085 26.5707 95.6449 26.5281 95.6449 26.4429C95.6449 26.3897 95.6345 26.3205 95.6137 26.2353H95.6501L95.8268 26.9805H95.7904C95.7627 26.8634 95.7315 26.7783 95.6969 26.725C95.6622 26.6718 95.6154 26.6452 95.5565 26.6452H94.1531V28.2847C94.1531 28.3521 94.1739 28.4018 94.2155 28.4337C94.2571 28.4657 94.3195 28.4816 94.4026 28.4816H96.0815C96.1474 28.4816 96.2011 28.4533 96.2426 28.3965C96.2842 28.3397 96.3258 28.2563 96.3674 28.1463H96.3986L96.2738 28.5562L96.2582 28.6094H96.2322Z" fill="#F0EAD2"/>
<path d="M98.1338 28.5295C98.2135 28.5295 98.2741 28.5065 98.3157 28.4603C98.3607 28.4142 98.3833 28.3557 98.3833 28.2847V25.1015C98.3833 25.0341 98.3625 24.9844 98.3209 24.9525C98.2793 24.9205 98.2169 24.9046 98.1338 24.9046H97.1826C97.1167 24.9046 97.063 24.9329 97.0215 24.9897C96.9799 25.0465 96.9383 25.1299 96.8967 25.2399H96.8655L97.0059 24.7768H97.0318C97.0388 24.8123 97.1081 24.83 97.2397 24.83H99.7451C99.8767 24.83 99.946 24.8123 99.953 24.7768H99.979L100.119 25.2399H100.088C100.047 25.1299 100.005 25.0465 99.9634 24.9897C99.9218 24.9329 99.8681 24.9046 99.8022 24.9046H98.8511C98.7679 24.9046 98.7055 24.9205 98.6639 24.9525C98.6224 24.9844 98.6016 25.0341 98.6016 25.1015V28.2847C98.6016 28.3557 98.6224 28.416 98.6639 28.4657C98.709 28.5118 98.7714 28.5349 98.8511 28.5349V28.5562H98.1338V28.5295Z" fill="#F0EAD2"/>
<path d="M8.24098 15.7606C6.7254 15.7606 5.33368 15.4109 4.06584 14.7114C2.81257 14.0119 1.82161 13.0646 1.09296 11.8696C0.364316 10.6601 -7.62939e-06 9.34125 -7.62939e-06 7.9131C-7.62939e-06 6.41209 0.364316 5.06409 1.09296 3.86911C1.83618 2.65956 2.84171 1.7196 4.10956 1.04925C5.3774 0.364323 6.76183 0.0218591 8.26284 0.0218591C9.85129 0.0218591 11.4179 0.364323 12.9626 1.04925C12.9918 1.06382 13.0355 1.07111 13.0938 1.07111C13.1666 1.07111 13.2322 0.983672 13.2905 0.808797C13.3634 0.619349 13.3998 0.429901 13.3998 0.240453H13.531V2.16408H13.4217C12.7222 1.56659 11.9134 1.10754 10.9953 0.786938C10.0772 0.466334 9.15908 0.306031 8.24098 0.306031C6.8857 0.306031 5.647 0.612063 4.52489 1.22413C3.40277 1.82162 2.51382 2.65227 1.85804 3.7161C1.20226 4.77992 0.874368 5.9749 0.874368 7.30104C0.874368 8.81662 1.24598 10.1938 1.9892 11.4325C2.73242 12.6712 3.7088 13.6475 4.91835 14.3616C6.12791 15.0611 7.40304 15.4109 8.74375 15.4109C10.5362 15.4109 12.1465 14.7624 13.5747 13.4654L13.684 13.6184C12.8387 14.3762 11.9935 14.9227 11.1483 15.2579C10.3176 15.593 9.34853 15.7606 8.24098 15.7606Z" fill="#F0EAD2"/>
<path d="M16.9376 15.4327C17.5934 15.4327 18.0451 15.1486 18.2929 14.5802L24.0638 0.699501C23.8597 0.466333 23.5756 0.34975 23.2112 0.34975V0.240453H24.8726L30.7965 14.4272C30.9276 14.7332 31.1098 14.981 31.3429 15.1704C31.5761 15.3453 31.8457 15.4327 32.1517 15.4327V15.542H29.2663V15.4327C29.7472 15.4327 29.9877 15.287 29.9877 14.9955C29.9877 14.9227 29.9658 14.8207 29.9221 14.6895L27.2115 8.19727H21.2876L18.5771 14.7114C18.5333 14.8134 18.5115 14.9081 18.5115 14.9955C18.5115 15.287 18.8394 15.4327 19.4952 15.4327V15.542H16.9376V15.4327ZM27.0804 7.89124L24.2386 1.07111L21.4188 7.89124H27.0804Z" fill="#F0EAD2"/>
<path d="M40.8152 15.7606C39.8534 15.7606 38.9426 15.5857 38.0828 15.236C37.223 14.8862 36.4579 14.3689 35.7876 13.684C35.7439 13.6548 35.7001 13.6475 35.6564 13.6621C35.5981 13.6913 35.5325 13.9536 35.4597 14.4491C35.4014 14.9445 35.3722 15.3089 35.3722 15.542H35.2411L35.2192 12.4817H35.3285C35.8386 13.429 36.5745 14.1576 37.5363 14.6677C38.5127 15.1631 39.5765 15.4109 40.7278 15.4109C41.6313 15.4109 42.4693 15.2579 43.2416 14.9518C44.014 14.6458 44.6333 14.2013 45.0997 13.6184C45.566 13.0209 45.7992 12.3141 45.7992 11.498C45.7992 10.7548 45.5879 10.15 45.1652 9.68371C44.7426 9.21738 44.218 8.86034 43.5914 8.6126C42.9793 8.35029 42.1487 8.06612 41.0994 7.76008C40.0356 7.45405 39.1758 7.16988 38.52 6.90757C37.8788 6.64526 37.3323 6.26636 36.8805 5.77088C36.4434 5.2754 36.2175 4.6269 36.2029 3.82539C36.1883 2.99474 36.3778 2.29524 36.7712 1.72689C37.1793 1.14397 37.7112 0.714073 38.367 0.437187C39.0228 0.145729 39.7223 0 40.4655 0C41.0775 0 41.6605 0.0947241 42.2142 0.284172C42.768 0.459047 43.2416 0.714073 43.6351 1.04925C43.6642 1.06382 43.708 1.07111 43.7662 1.07111C43.8391 1.07111 43.9047 0.983672 43.963 0.808797C44.0358 0.619349 44.0723 0.429901 44.0723 0.240453H44.2034V2.16408H44.0941C43.7735 1.56659 43.2853 1.10754 42.6296 0.786938C41.9883 0.466334 41.2888 0.306031 40.5311 0.306031C39.8607 0.306031 39.2268 0.437188 38.6293 0.699501C38.0464 0.94724 37.5728 1.31885 37.2084 1.81433C36.8587 2.29524 36.6911 2.87815 36.7057 3.56308C36.7202 4.18972 36.917 4.69977 37.2959 5.09324C37.6893 5.47213 38.163 5.77088 38.7167 5.98947C39.2851 6.20807 40.0501 6.44852 41.012 6.71083C42.1487 7.03144 43.0595 7.33747 43.7444 7.62893C44.4439 7.92039 45.0341 8.35029 45.515 8.91863C46.0105 9.48698 46.2582 10.2448 46.2582 11.192C46.2582 12.1684 46.0105 12.9991 45.515 13.684C45.0341 14.3689 44.3783 14.8862 43.5477 15.236C42.7316 15.5857 41.8208 15.7606 40.8152 15.7606Z" fill="#F0EAD2"/>
<path d="M55.7992 15.7606C54.8373 15.7606 53.9265 15.5857 53.0667 15.236C52.2069 14.8862 51.4419 14.3689 50.7715 13.684C50.7278 13.6548 50.6841 13.6475 50.6403 13.6621C50.5821 13.6913 50.5165 13.9536 50.4436 14.4491C50.3853 14.9445 50.3562 15.3089 50.3562 15.542H50.225L50.2032 12.4817H50.3125C50.8225 13.429 51.5584 14.1576 52.5202 14.6677C53.4966 15.1631 54.5605 15.4109 55.7117 15.4109C56.6152 15.4109 57.4532 15.2579 58.2256 14.9518C58.9979 14.6458 59.6173 14.2013 60.0836 13.6184C60.5499 13.0209 60.7831 12.3141 60.7831 11.498C60.7831 10.7548 60.5718 10.15 60.1492 9.68371C59.7266 9.21738 59.2019 8.86034 58.5753 8.6126C57.9632 8.35029 57.1326 8.06612 56.0833 7.76008C55.0195 7.45405 54.1597 7.16988 53.5039 6.90757C52.8627 6.64526 52.3162 6.26636 51.8645 5.77088C51.4273 5.2754 51.2014 4.6269 51.1868 3.82539C51.1723 2.99474 51.3617 2.29524 51.7552 1.72689C52.1632 1.14397 52.6951 0.714073 53.3509 0.437187C54.0067 0.145729 54.7062 0 55.4494 0C56.0615 0 56.6444 0.0947241 57.1982 0.284172C57.7519 0.459047 58.2256 0.714073 58.619 1.04925C58.6482 1.06382 58.6919 1.07111 58.7502 1.07111C58.823 1.07111 58.8886 0.983672 58.9469 0.808797C59.0198 0.619349 59.0562 0.429901 59.0562 0.240453H59.1874V2.16408H59.0781C58.7575 1.56659 58.2693 1.10754 57.6135 0.786938C56.9723 0.466334 56.2728 0.306031 55.515 0.306031C54.8446 0.306031 54.2107 0.437188 53.6132 0.699501C53.0303 0.94724 52.5567 1.31885 52.1924 1.81433C51.8426 2.29524 51.675 2.87815 51.6896 3.56308C51.7042 4.18972 51.9009 4.69977 52.2798 5.09324C52.6733 5.47213 53.1469 5.77088 53.7007 5.98947C54.269 6.20807 55.0341 6.44852 55.9959 6.71083C57.1326 7.03144 58.0434 7.33747 58.7283 7.62893C59.4278 7.92039 60.018 8.35029 60.4989 8.91863C60.9944 9.48698 61.2421 10.2448 61.2421 11.192C61.2421 12.1684 60.9944 12.9991 60.4989 13.684C60.018 14.3689 59.3622 14.8862 58.5316 15.236C57.7155 15.5857 56.8047 15.7606 55.7992 15.7606Z" fill="#F0EAD2"/>
<path d="M65.5602 15.4327C65.8954 15.4327 66.1504 15.338 66.3253 15.1486C66.5148 14.9591 66.6095 14.7187 66.6095 14.4272V1.35528C66.6095 1.06382 66.5148 0.82337 66.3253 0.633922C66.1504 0.444474 65.8954 0.34975 65.5602 0.34975V0.240453H68.5768V0.34975C68.2416 0.34975 67.9793 0.444474 67.7899 0.633922C67.615 0.82337 67.5276 1.06382 67.5276 1.35528V14.4272C67.5276 14.7187 67.615 14.9591 67.7899 15.1486C67.9793 15.338 68.2416 15.4327 68.5768 15.4327V15.542H65.5602V15.4327Z" fill="#F0EAD2"/>
<path d="M80.601 15.7606C79.0272 15.7606 77.6063 15.4109 76.3384 14.7114C75.0706 14.0119 74.0724 13.0646 73.3437 11.8696C72.6296 10.6601 72.2726 9.33396 72.2726 7.89124C72.2726 6.44852 72.6296 5.12967 73.3437 3.93469C74.0724 2.73971 75.0706 1.79247 76.3384 1.09297C77.6063 0.393469 79.0272 0.0437182 80.601 0.0437182C82.1749 0.0437182 83.5958 0.393469 84.8636 1.09297C86.1315 1.79247 87.1224 2.73971 87.8365 3.93469C88.5651 5.12967 88.9295 6.44852 88.9295 7.89124C88.9295 9.33396 88.5651 10.6601 87.8365 11.8696C87.1224 13.0646 86.1315 14.0119 84.8636 14.7114C83.5958 15.4109 82.1749 15.7606 80.601 15.7606ZM80.7103 15.4546C82.051 15.4546 83.2752 15.1631 84.3827 14.5802C85.5048 13.9827 86.3938 13.1448 87.0495 12.0664C87.7199 10.988 88.0551 9.75657 88.0551 8.37215C88.0551 6.7837 87.7126 5.3847 87.0277 4.17514C86.3573 2.95102 85.4465 2.01106 84.2953 1.35528C83.144 0.684927 81.8762 0.34975 80.4917 0.34975C79.1802 0.34975 77.9633 0.648495 76.8412 1.24598C75.7191 1.84347 74.8229 2.6887 74.1525 3.78167C73.4967 4.86007 73.1688 6.09148 73.1688 7.47591C73.1688 9.04979 73.5113 10.4415 74.1962 11.6511C74.8812 12.8606 75.7992 13.8006 76.9505 14.4709C78.1018 15.1267 79.355 15.4546 80.7103 15.4546Z" fill="#F0EAD2"/>
<path d="M92.6249 15.4327C92.9601 15.4327 93.2151 15.338 93.39 15.1486C93.5794 14.9591 93.6741 14.7187 93.6741 14.4272V1.35528C93.6741 1.06382 93.5794 0.82337 93.39 0.633922C93.2151 0.444474 92.9601 0.34975 92.6249 0.34975V0.240453H98.4176C99.6272 0.240453 100.655 0.422615 101.5 0.786938C102.345 1.13669 102.986 1.62488 103.423 2.25152C103.861 2.86358 104.079 3.56308 104.079 4.35002C104.079 5.34098 103.846 6.18621 103.38 6.88571C102.928 7.58521 102.316 8.10983 101.544 8.45958C100.771 8.80933 99.9259 8.98421 99.0078 8.98421C98.2938 8.98421 97.5724 8.87491 96.8438 8.65632C96.1151 8.43773 95.4302 8.11712 94.789 7.69451L94.8764 7.54149C95.4593 7.92039 96.0787 8.20456 96.7345 8.39401C97.3902 8.58345 98.0387 8.67818 98.6799 8.67818C99.9186 8.67818 100.961 8.32843 101.806 7.62893C102.651 6.91485 103.117 5.88746 103.205 4.54675C103.278 3.3372 102.899 2.3681 102.068 1.63945C101.252 0.910808 100.021 0.546484 98.3739 0.546484H95.6415C95.2917 0.546484 95.0294 0.612062 94.8545 0.743219C94.6797 0.874375 94.5922 1.0784 94.5922 1.35528V14.4272C94.5922 14.7187 94.6797 14.9664 94.8545 15.1704C95.044 15.3599 95.3063 15.4546 95.6415 15.4546V15.542H92.6249V15.4327Z" fill="#F0EAD2"/>
<path d="M118.726 15.7606C118.696 15.6149 118.405 15.542 117.851 15.542H108.014V15.4327C108.35 15.4327 108.605 15.338 108.779 15.1486C108.969 14.9591 109.064 14.7187 109.064 14.4272V1.35528C109.064 1.06382 108.969 0.82337 108.779 0.633922C108.605 0.444474 108.35 0.34975 108.014 0.34975V0.240453H117.414C117.968 0.240453 118.259 0.167588 118.288 0.0218591H118.398L118.988 1.92363H118.857C118.682 1.47187 118.507 1.1294 118.332 0.896235C118.157 0.663068 117.931 0.546484 117.654 0.546484H111.031C110.681 0.546484 110.419 0.612062 110.244 0.743219C110.069 0.874375 109.982 1.0784 109.982 1.35528V7.38847H115.796C116.102 7.38847 116.255 7.2136 116.255 6.86385C116.255 6.64525 116.212 6.36108 116.124 6.01133H116.277L117.02 9.07165H116.867C116.751 8.59074 116.62 8.24099 116.474 8.0224C116.328 7.8038 116.132 7.69451 115.884 7.69451H109.982V14.4272C109.982 14.7041 110.069 14.9081 110.244 15.0393C110.419 15.1704 110.681 15.236 111.031 15.236H118.092C118.368 15.236 118.594 15.1194 118.769 14.8862C118.944 14.6531 119.119 14.3106 119.294 13.8589H119.425L118.9 15.542L118.835 15.7606H118.726Z" fill="#F0EAD2"/>
<path d="M123.148 15.4327C123.483 15.4327 123.738 15.338 123.913 15.1486C124.102 14.9591 124.197 14.7187 124.197 14.4272V1.35528C124.197 1.06382 124.102 0.82337 123.913 0.633922C123.738 0.444474 123.483 0.34975 123.148 0.34975V0.240453H126.164V0.34975C125.829 0.34975 125.567 0.444474 125.377 0.633922C125.203 0.82337 125.115 1.06382 125.115 1.35528V14.4272C125.115 14.7187 125.203 14.9591 125.377 15.1486C125.567 15.338 125.829 15.4327 126.164 15.4327V15.542H123.148V15.4327Z" fill="#F0EAD2"/>
<path d="M129.786 15.4327C130.442 15.4327 130.893 15.1486 131.141 14.5802L136.912 0.699501C136.708 0.466333 136.424 0.34975 136.06 0.34975V0.240453H137.721L143.645 14.4272C143.776 14.7332 143.958 14.981 144.191 15.1704C144.424 15.3453 144.694 15.4327 145 15.4327V15.542H142.115V15.4327C142.595 15.4327 142.836 15.287 142.836 14.9955C142.836 14.9227 142.814 14.8207 142.77 14.6895L140.06 8.19727H134.136L131.425 14.7114C131.382 14.8134 131.36 14.9081 131.36 14.9955C131.36 15.287 131.688 15.4327 132.343 15.4327V15.542H129.786V15.4327ZM139.929 7.89124L137.087 1.07111L134.267 7.89124H139.929Z" fill="#F0EAD2"/>
<path d="M80.3704 10.2023H80.626C80.6685 9.93465 80.7902 9.64872 80.9849 9.33845C81.3682 8.724 82.153 8.12781 82.8404 7.98788V7.73237C82.4997 7.65937 82.1712 7.50728 81.8549 7.28218C81.2161 6.82591 80.7294 6.15062 80.626 5.53009H80.3704C80.3096 5.85861 80.1697 6.17496 79.9507 6.48522C79.5127 7.10576 78.8435 7.58028 78.1682 7.73237V7.98788C78.5028 8.0548 78.8495 8.22515 79.2024 8.49283C79.9081 9.02819 80.2853 9.67914 80.3704 10.2023ZM80.4556 10.0563C80.407 9.47229 80.2184 8.77267 79.9933 8.37724C79.5796 8.14606 78.8678 7.95747 78.3142 7.91488V7.82971C78.8739 7.78712 79.6039 7.58028 79.9933 7.35518C80.2244 6.94758 80.407 6.26013 80.4556 5.68827H80.5408C80.6016 6.32097 80.7902 6.99017 81.0031 7.35518C81.3803 7.58028 82.1469 7.78712 82.6822 7.82971V7.91488C82.1469 7.95138 81.4108 8.14606 81.0031 8.37724C80.7902 8.73617 80.6016 9.42362 80.5408 10.0563H80.4556Z" fill="#F0EAD2"/>
</svg>
