<svg width="24" height="24" viewBox="0 0 24 24" fill="none" xmlns="http://www.w3.org/2000/svg">
<path d="M5.33299 8.001C5.33299 9.47394 6.52705 10.668 7.99999 10.668C9.47294 10.668 10.667 9.47394 10.667 8.001C10.667 6.52806 9.47294 5.334 7.99999 5.334C6.52705 5.334 5.33299 6.52806 5.33299 8.001ZM5.33299 8.001H2.66699M13.333 8H21.333M18.667 16.332C18.667 17.8049 17.4729 18.999 16 18.999C14.527 18.999 13.333 17.8049 13.333 16.332C13.333 14.8591 14.527 13.665 16 13.665C17.4729 13.665 18.667 14.8591 18.667 16.332ZM18.667 16.332H21.333M10.667 16.331H2.66699" stroke="#281D15" stroke-width="0.7" stroke-miterlimit="10" stroke-linecap="round" stroke-linejoin="round"/>
</svg>
